<svg width="14" height="25" viewBox="0 0 14 25" fill="none" xmlns="http://www.w3.org/2000/svg">
<path d="M1.0459 14.5177H3.66882V24.2177C3.66882 24.649 4.01777 24.999 4.45007 24.999L8.62402 25C9.05632 25 9.40527 24.649 9.40527 24.2188V14.5187H11.8917C12.2855 14.5187 12.6178 14.225 12.6667 13.8344L13.1855 9.66771C13.2438 9.20312 12.8803 8.78958 12.4105 8.78958H9.40527C9.52298 6.21562 8.95215 5.45417 10.6261 5.45417C11.7594 5.31875 13.5469 5.89271 13.5469 4.67292V0.946875C13.5469 0.55625 13.2584 0.226042 12.8719 0.172917C12.5449 0.128125 11.2522 0 9.64902 0C2.34694 0 3.85007 8.09583 3.66986 8.78854H1.0459C0.614648 8.78854 0.264648 9.13854 0.264648 9.56979V13.7365C0.264648 14.1677 0.614648 14.5177 1.0459 14.5177ZM1.82715 10.3521H4.45007C4.88132 10.3521 5.23132 10.0021 5.23132 9.57083V6.28854C5.23132 3.28542 6.84069 1.56354 9.64798 1.56354C10.5626 1.56354 11.4042 1.60833 11.9834 1.65417V3.89271C11.5646 4.10625 7.84173 2.97187 7.84173 6.70208V9.57187C7.84173 10.0031 8.19173 10.3531 8.62298 10.3531H11.5251L11.2001 12.9573H8.62298C8.19173 12.9573 7.84173 13.3073 7.84173 13.7385V23.4375H5.23236V13.7375C5.23236 13.3062 4.88236 12.9562 4.45111 12.9562H1.82715V10.3521Z" fill="white"/>
</svg>
