<svg width="10" height="18" viewBox="0 0 10 18" fill="none" xmlns="http://www.w3.org/2000/svg">
<path d="M1.4003 10.8495H3.18687V17.4565C3.18687 17.7502 3.42455 17.9886 3.719 17.9886L6.56204 17.9893C6.85649 17.9893 7.09418 17.7502 7.09418 17.4572V10.8502H8.78779C9.05599 10.8502 9.28233 10.6501 9.31567 10.384L9.66901 7.54596C9.70875 7.22952 9.46113 6.94784 9.14113 6.94784H7.09418C7.17435 5.19463 6.78554 4.67597 7.92573 4.67597C8.69769 4.58373 9.91522 4.97468 9.91522 4.14383V1.60589C9.91522 1.33982 9.71868 1.1149 9.45545 1.07872C9.23266 1.04821 8.35215 0.960938 7.2602 0.960938C2.28649 0.960938 3.31032 6.4753 3.18758 6.94713H1.4003C1.10656 6.94713 0.868164 7.18553 0.868164 7.47927V10.3173C0.868164 10.6111 1.10656 10.8495 1.4003 10.8495ZM1.93244 8.01212H3.719C4.01274 8.01212 4.25114 7.77372 4.25114 7.47998V5.24429C4.25114 3.19875 5.34734 2.02592 7.25949 2.02592C7.88245 2.02592 8.45574 2.05643 8.85023 2.08765V3.6124C8.56501 3.75785 6.02919 2.98519 6.02919 5.52597V7.48069C6.02919 7.77443 6.26759 8.01283 6.56133 8.01283H8.53804L8.31667 9.78662H6.56133C6.26759 9.78662 6.02919 10.025 6.02919 10.3188V16.9251H4.25185V10.318C4.25185 10.0243 4.01345 9.78591 3.71971 9.78591H1.93244V8.01212Z" fill="#D68629"/>
</svg>
