<svg width="18" height="26" viewBox="0 0 18 26" fill="none" xmlns="http://www.w3.org/2000/svg">
<g filter="url(#filter0_d)">
<path d="M5.4003 10.8495H7.18687V17.4565C7.18687 17.7502 7.42455 17.9886 7.719 17.9886L10.562 17.9893C10.8565 17.9893 11.0942 17.7502 11.0942 17.4572V10.8502H12.7878C13.056 10.8502 13.2823 10.6501 13.3157 10.384L13.669 7.54596C13.7087 7.22952 13.4611 6.94784 13.1411 6.94784H11.0942C11.1744 5.19463 10.7855 4.67597 11.9257 4.67597C12.6977 4.58373 13.9152 4.97468 13.9152 4.14383V1.60589C13.9152 1.33982 13.7187 1.1149 13.4554 1.07872C13.2327 1.04821 12.3522 0.960938 11.2602 0.960938C6.28649 0.960938 7.31032 6.4753 7.18758 6.94713H5.4003C5.10656 6.94713 4.86816 7.18553 4.86816 7.47927V10.3173C4.86816 10.6111 5.10656 10.8495 5.4003 10.8495ZM5.93244 8.01212H7.719C8.01274 8.01212 8.25114 7.77372 8.25114 7.47998V5.24429C8.25114 3.19875 9.34734 2.02592 11.2595 2.02592C11.8824 2.02592 12.4557 2.05643 12.8502 2.08765V3.6124C12.565 3.75785 10.0292 2.98519 10.0292 5.52597V7.48069C10.0292 7.77443 10.2676 8.01283 10.5613 8.01283H12.538L12.3167 9.78662H10.5613C10.2676 9.78662 10.0292 10.025 10.0292 10.3188V16.9251H8.25185V10.318C8.25185 10.0243 8.01345 9.78591 7.71971 9.78591H5.93244V8.01212Z" fill="#D68629"/>
</g>
<defs>
<filter id="filter0_d" x="0.868164" y="0.960938" width="17.0471" height="25.0284" filterUnits="userSpaceOnUse" color-interpolation-filters="sRGB">
<feFlood flood-opacity="0" result="BackgroundImageFix"/>
<feColorMatrix in="SourceAlpha" type="matrix" values="0 0 0 0 0 0 0 0 0 0 0 0 0 0 0 0 0 0 127 0"/>
<feOffset dy="4"/>
<feGaussianBlur stdDeviation="2"/>
<feColorMatrix type="matrix" values="0 0 0 0 0 0 0 0 0 0 0 0 0 0 0 0 0 0 0.25 0"/>
<feBlend mode="normal" in2="BackgroundImageFix" result="effect1_dropShadow"/>
<feBlend mode="normal" in="SourceGraphic" in2="effect1_dropShadow" result="shape"/>
</filter>
</defs>
</svg>
