<svg width="26" height="25" viewBox="0 0 26 25" fill="none" xmlns="http://www.w3.org/2000/svg">
<path d="M5.37956 25H20.4837C23.2118 25 25.4316 22.7802 25.4316 20.0521V4.94792C25.4316 2.21979 23.2118 0 20.4837 0H5.37956C2.65143 0 0.431641 2.21979 0.431641 4.94792V20.0521C0.431641 22.7802 2.65143 25 5.37956 25ZM1.99414 4.94792C1.99414 3.08125 3.51289 1.5625 5.37956 1.5625H20.4837C22.3504 1.5625 23.8691 3.08125 23.8691 4.94792V20.0521C23.8691 21.9187 22.3504 23.4375 20.4837 23.4375H5.37956C3.51289 23.4375 1.99414 21.9187 1.99414 20.0521V4.94792Z" fill="white"/>
<path d="M12.9318 18.8854C16.4526 18.8854 19.3172 16.0208 19.3172 12.5C19.3172 8.97918 16.4526 6.11459 12.9318 6.11459C9.41097 6.11459 6.54639 8.97918 6.54639 12.5C6.54639 16.0208 9.41097 18.8854 12.9318 18.8854ZM12.9318 7.67709C15.5912 7.67709 17.7547 9.84064 17.7547 12.5C17.7547 15.1594 15.5912 17.3229 12.9318 17.3229C10.2724 17.3229 8.10889 15.1594 8.10889 12.5C8.10889 9.84064 10.2724 7.67709 12.9318 7.67709Z" fill="white"/>
<path d="M19.5549 7.66873C20.582 7.66873 21.3559 6.8979 21.3559 5.87602C21.3559 4.8104 20.5413 4.08331 19.5559 4.08331C18.5288 4.08331 17.7549 4.85415 17.7549 5.87602C17.7549 6.93956 18.5653 7.66873 19.5549 7.66873ZM19.7393 5.70415C20.0684 5.99477 19.3174 6.3479 19.3174 5.87706C19.3174 5.59581 19.6997 5.66873 19.7393 5.70415Z" fill="white"/>
</svg>
