<svg width="18" height="18" viewBox="0 0 18 18" fill="none" xmlns="http://www.w3.org/2000/svg">
<path d="M3.37021 17.0284H13.6582C15.5164 17.0284 17.0284 15.5164 17.0284 13.6582V3.37021C17.0284 1.51198 15.5164 0 13.6582 0H3.37021C1.51198 0 0 1.51198 0 3.37021V13.6582C0 15.5164 1.51198 17.0284 3.37021 17.0284ZM1.06428 3.37021C1.06428 2.09875 2.09875 1.06428 3.37021 1.06428H13.6582C14.9297 1.06428 15.9641 2.09875 15.9641 3.37021V13.6582C15.9641 14.9297 14.9297 15.9641 13.6582 15.9641H3.37021C2.09875 15.9641 1.06428 14.9297 1.06428 13.6582V3.37021Z" fill="#D68629"/>
<path d="M8.51426 12.8627C10.9124 12.8627 12.8636 10.9116 12.8636 8.5134C12.8636 6.11523 10.9124 4.16406 8.51426 4.16406C6.11609 4.16406 4.16492 6.11523 4.16492 8.5134C4.16492 10.9116 6.11609 12.8627 8.51426 12.8627ZM8.51426 5.22834C10.3257 5.22834 11.7993 6.702 11.7993 8.5134C11.7993 10.3248 10.3257 11.7985 8.51426 11.7985C6.70286 11.7985 5.22919 10.3248 5.22919 8.5134C5.22919 6.702 6.70286 5.22834 8.51426 5.22834Z" fill="#D68629"/>
<path d="M13.0253 5.22341C13.7249 5.22341 14.2521 4.69836 14.2521 4.00233C14.2521 3.27649 13.6972 2.78125 13.026 2.78125C12.3264 2.78125 11.7993 3.30629 11.7993 4.00233C11.7993 4.72675 12.3513 5.22341 13.0253 5.22341ZM13.1509 3.88526C13.3751 4.08321 12.8635 4.32374 12.8635 4.00304C12.8635 3.81147 13.1239 3.86113 13.1509 3.88526Z" fill="#D68629"/>
</svg>
