<svg width="18" height="10" viewBox="0 0 18 10" fill="none" xmlns="http://www.w3.org/2000/svg">
<path d="M14.13 5.72335C13.8547 5.37568 13.9335 5.22101 14.13 4.91024C14.1336 4.90669 16.4062 1.76637 16.6403 0.701385L16.6417 0.700675C16.7581 0.31257 16.6417 0.0273438 16.0791 0.0273438H14.2173C13.7433 0.0273438 13.5248 0.272127 13.4077 0.546001C13.4077 0.546001 12.4598 2.81504 11.1188 4.28587C10.686 4.71087 10.486 4.84709 10.2497 4.84709C10.1333 4.84709 9.95239 4.71087 9.95239 4.32276V0.700675C9.95239 0.235232 9.81971 0.0273438 9.42735 0.0273438H6.49989C6.2026 0.0273438 6.02593 0.244456 6.02593 0.446668C6.02593 0.887988 6.69642 0.989449 6.76595 2.2311V4.92514C6.76595 5.51546 6.65882 5.62401 6.42113 5.62401C5.78824 5.62401 4.25214 3.34576 3.34182 0.73828C3.15806 0.232394 2.97855 0.0280532 2.50105 0.0280532H0.638565C0.107137 0.0280532 0 0.272837 0 0.54671C0 1.0306 0.632889 3.43657 2.94308 6.61521C4.48273 8.78491 6.65101 9.96058 8.62347 9.96058C9.80907 9.96058 9.95381 9.69948 9.95381 9.25036C9.95381 7.17715 9.84668 6.98132 10.4405 6.98132C10.7158 6.98132 11.1898 7.11755 12.2966 8.16409C13.5617 9.40503 13.7696 9.96058 14.4777 9.96058H16.3395C16.8702 9.96058 17.1391 9.69948 16.9844 9.18437C16.6304 8.10094 14.2379 5.87235 14.13 5.72335Z" fill="#D68629"/>
</svg>
