<svg width="26" height="15" viewBox="0 0 26 15" fill="none" xmlns="http://www.w3.org/2000/svg">
<path d="M21.234 8.77437C20.8299 8.26395 20.9455 8.03687 21.234 7.58062C21.2393 7.57541 24.5757 2.96499 24.9195 1.40145L24.9215 1.40041C25.0924 0.830615 24.9215 0.411865 24.0955 0.411865H21.3622C20.6663 0.411865 20.3455 0.77124 20.1736 1.17332C20.1736 1.17332 18.782 4.50457 16.8132 6.66395C16.1778 7.28791 15.884 7.48791 15.5372 7.48791C15.3663 7.48791 15.1007 7.28791 15.1007 6.71812V1.40041C15.1007 0.717073 14.9059 0.411865 14.3299 0.411865H10.032C9.59551 0.411865 9.33613 0.730615 9.33613 1.02749C9.33613 1.67541 10.3205 1.82437 10.4226 3.64728V7.60249C10.4226 8.46916 10.2653 8.62853 9.91634 8.62853C8.98717 8.62853 6.73197 5.28374 5.39551 1.45562C5.12572 0.712907 4.86217 0.412907 4.16113 0.412907H1.42676C0.646549 0.412907 0.489258 0.772282 0.489258 1.17437C0.489258 1.88478 1.41842 5.41707 4.81009 10.0837C7.07051 13.2692 10.2538 14.9952 13.1497 14.9952C14.8903 14.9952 15.1028 14.6119 15.1028 13.9525C15.1028 10.9087 14.9455 10.6212 15.8174 10.6212C16.2215 10.6212 16.9174 10.8212 18.5424 12.3577C20.3997 14.1796 20.7049 14.9952 21.7445 14.9952H24.4778C25.257 14.9952 25.6518 14.6119 25.4247 13.8556C24.9049 12.265 21.3924 8.99312 21.234 8.77437Z" fill="white"/>
</svg>
