<svg width="17" height="17" viewBox="0 0 17 17" fill="none" xmlns="http://www.w3.org/2000/svg">
<path d="M10.1189 0H6.88087C3.48935 0 0.730103 2.7586 0.730103 6.14947V9.06639C0.730103 11.5916 2.2818 13.861 4.615 14.7853V16.6763C4.615 16.8045 4.69043 16.9204 4.80763 16.9722C4.84972 16.9909 4.89439 17 4.93874 17C5.01741 17 5.09544 16.9712 5.15598 16.9161L7.03335 15.2159H10.1189C13.5105 15.2159 16.2697 12.4573 16.2697 9.06639V6.14947C16.2697 2.7586 13.5105 0 10.1189 0ZM15.6222 9.06639C15.6222 12.1002 13.1537 14.5684 10.1189 14.5684H6.90839C6.8281 14.5684 6.75073 14.5982 6.69116 14.6522L5.26249 15.9462V14.5609C5.26249 14.4237 5.17605 14.3013 5.04655 14.256C2.85223 13.48 1.37759 11.3944 1.37759 9.06639V6.14947C1.37759 3.11569 3.84644 0.647483 6.88087 0.647483H10.1189C13.1537 0.647483 15.6222 3.11569 15.6222 6.14947V9.06639Z" fill="#D68629"/>
<path d="M12.7783 9.87164L10.7886 8.57926C10.571 8.43779 10.312 8.38987 10.0585 8.44232C9.80473 8.49574 9.58653 8.64563 9.44506 8.86416L9.3515 9.0079C8.49034 8.72333 7.54081 8.35977 6.97232 6.71419L7.20768 6.50958C7.61171 6.15832 7.65412 5.54386 7.30286 5.13918L5.74631 3.34857C5.62911 3.21357 5.42451 3.19965 5.28951 3.31652L4.31213 4.16602C3.45486 4.91127 3.85533 6.01361 3.9871 6.37588C3.99292 6.39206 4.00005 6.4076 4.00846 6.42282C4.04246 6.48368 4.85408 7.9321 6.16491 9.26721C7.48092 10.6078 9.85686 11.8458 9.9297 11.8818C10.201 12.0579 10.5063 12.1424 10.8083 12.1424C11.3386 12.1424 11.8586 11.8824 12.1687 11.4059L12.8738 10.32C12.9709 10.1695 12.9282 9.96909 12.7783 9.87164ZM11.6255 11.053C11.3338 11.5023 10.731 11.6299 10.2551 11.323C10.2314 11.3107 7.87102 10.0814 6.62689 8.81397C5.46401 7.6294 4.69188 6.31339 4.58667 6.12983C4.33026 5.4108 4.37559 4.96889 4.73688 4.65487L5.47016 4.01774L6.81433 5.56393C6.93379 5.7012 6.91987 5.90192 6.78325 6.02073L6.38602 6.36584C6.28922 6.45001 6.25102 6.58307 6.2889 6.70544C6.96617 8.90624 8.28315 9.33844 9.24466 9.65408L9.38484 9.70038C9.52502 9.74765 9.67847 9.69358 9.75876 9.56991L9.9883 9.21639C10.0356 9.14322 10.1081 9.09369 10.1923 9.07588C10.2767 9.05775 10.3629 9.07459 10.436 9.12218L12.1545 10.2381L11.6255 11.053Z" fill="#D68629"/>
<path d="M9.23886 5.26073C9.06663 5.21119 8.8876 5.31123 8.83872 5.48346C8.78983 5.65537 8.88955 5.8344 9.06145 5.88328C9.54383 6.02055 9.92811 6.40548 10.0641 6.88818C10.1042 7.03062 10.234 7.12418 10.3755 7.12418C10.4047 7.12418 10.4341 7.1203 10.4636 7.11221C10.6355 7.06364 10.7358 6.88494 10.6873 6.71271C10.4908 6.01537 9.93555 5.45886 9.23886 5.26073Z" fill="#D68629"/>
<path d="M11.7027 7.19377C11.7319 7.19377 11.7613 7.18988 11.7908 7.18179C11.963 7.13323 12.063 6.9542 12.0145 6.78229C11.6325 5.42808 10.5547 4.34808 9.20149 3.96282C9.02958 3.91329 8.85056 4.01398 8.80167 4.18588C8.75279 4.35779 8.8525 4.53682 9.0244 4.5857C10.163 4.90944 11.0698 5.81884 11.3913 6.95808C11.4317 7.10053 11.5612 7.19377 11.7027 7.19377Z" fill="#D68629"/>
<path d="M9.06174 2.45408C8.88951 2.40455 8.71048 2.50459 8.6616 2.67714C8.61271 2.84905 8.71242 3.02808 8.88433 3.07696C10.8135 3.6257 12.3503 5.16607 12.8948 7.09654C12.935 7.23899 13.0648 7.33255 13.2063 7.33255C13.2354 7.33255 13.2649 7.32866 13.2943 7.32057C13.4662 7.27201 13.5666 7.09298 13.518 6.92107C12.913 4.77564 11.2056 3.06434 9.06174 2.45408Z" fill="#D68629"/>
</svg>
