<svg width="138" height="39" viewBox="0 0 138 39" fill="none" xmlns="http://www.w3.org/2000/svg">
<path d="M34.144 31L28.992 23.64C32.032 22.456 33.76 19.96 33.76 16.568C33.76 11.608 30.112 8.6 24.224 8.6H15.008V31H19.168V24.472H24.224C24.512 24.472 24.8 24.472 25.088 24.44L29.664 31H34.144ZM29.568 16.568C29.568 19.384 27.68 21.048 24.032 21.048H19.168V12.12H24.032C27.68 12.12 29.568 13.752 29.568 16.568Z" fill="#D68629"/>
<path d="M40.448 31H41.088V9.208H49.408V8.6H32.128V9.208H40.448V31ZM65.0513 31L59.2273 22.936C62.7153 22.04 64.7313 19.576 64.7313 15.96C64.7313 11.32 61.4353 8.6 55.9312 8.6H48.3472V31H48.9872V23.32H55.9312C56.8593 23.32 57.7552 23.256 58.5553 23.096L64.2513 31H65.0513ZM48.9872 22.712V9.208H55.9952C61.2432 9.208 64.0912 11.672 64.0912 15.96C64.0912 20.248 61.2432 22.712 55.9952 22.712H48.9872ZM66.4535 30.392V19.928H78.8055V19.32H66.4535V9.208H80.2455V8.6H65.8135V31H80.7255V30.392H66.4535ZM98.7085 8.6V29.816L82.2925 8.6H81.7485V31H82.3885V9.784L98.8045 31H99.3485V8.6H98.7085ZM103.073 30.392V19.928H115.425V19.32H103.073V9.208H116.865V8.6H102.433V31H117.345V30.392H103.073ZM135.073 31L129.249 22.936C132.737 22.04 134.753 19.576 134.753 15.96C134.753 11.32 131.457 8.6 125.953 8.6H118.369V31H119.009V23.32H125.953C126.881 23.32 127.777 23.256 128.577 23.096L134.273 31H135.073ZM119.009 22.712V9.208H126.017C131.265 9.208 134.113 11.672 134.113 15.96C134.113 20.248 131.265 22.712 126.017 22.712H119.009Z" fill="black"/>
<path opacity="0.5" d="M20.776 31H25.128L15.016 8.6H10.92L0.84 31H5.128L7.336 25.816H18.536L20.776 31ZM8.744 22.552L12.936 12.76L17.16 22.552H8.744Z" fill="#D68629"/>
</svg>
