<svg width="66" height="66" viewBox="0 0 66 66" fill="none" xmlns="http://www.w3.org/2000/svg">
<path d="M18.4862 46.3274H9.78672C7.985 46.3274 6.52441 47.788 6.52441 49.5897V58.2892C6.52441 60.0909 7.985 61.5515 9.78672 61.5515H18.4862C20.2879 61.5515 21.7485 60.0909 21.7485 58.2892V49.5897C21.7485 47.788 20.2879 46.3274 18.4862 46.3274ZM19.5736 58.2892C19.5736 58.8897 19.0868 59.3766 18.4862 59.3766H9.78672C9.18614 59.3766 8.69928 58.8897 8.69928 58.2892V49.5897C8.69928 48.9891 9.18614 48.5023 9.78672 48.5023H18.4862C19.0868 48.5023 19.5736 48.9891 19.5736 49.5897V58.2892Z" fill="#D68629"/>
<path d="M22.2052 14.9985L21.7485 15.3247V14.7918C21.7485 12.9901 20.2879 11.5295 18.4862 11.5295H9.78672C7.985 11.5295 6.52441 12.9901 6.52441 14.7918V23.4913C6.52441 25.293 7.985 26.7536 9.78672 26.7536H18.4862C20.2879 26.7536 21.7485 25.293 21.7485 23.4913V17.9889L23.4666 16.7601C23.8203 16.5506 24.0257 16.1596 23.9974 15.7496C23.9691 15.3395 23.7119 14.9804 23.3328 14.8215C22.9537 14.6627 22.5174 14.7311 22.2052 14.9985ZM19.5736 23.4913C19.5736 24.0919 19.0868 24.5788 18.4862 24.5788H9.78672C9.18614 24.5788 8.69928 24.0919 8.69928 23.4913V14.7918C8.69928 14.1913 9.18614 13.7044 9.78672 13.7044H18.4862C19.0868 13.7044 19.5736 14.1913 19.5736 14.7918V16.8688L15.6262 19.6962L15.1043 18.6087C14.8106 18.1207 14.1901 17.942 13.6818 18.199C13.1735 18.456 12.9497 19.0616 13.1686 19.5874L14.2561 21.7623C14.3998 22.0437 14.6589 22.2486 14.9658 22.3238C15.2727 22.3989 15.5971 22.3369 15.8546 22.1538L19.5736 19.5439V23.4913Z" fill="#D68629"/>
<path d="M22.2052 32.3974L21.7485 32.7236V32.1908C21.7485 30.3891 20.2879 28.9285 18.4862 28.9285H9.78672C7.985 28.9285 6.52441 30.3891 6.52441 32.1908V40.8902C6.52441 42.692 7.985 44.1526 9.78672 44.1526H18.4862C20.2879 44.1526 21.7485 42.692 21.7485 40.8902V35.3878L23.4666 34.159C23.8203 33.9496 24.0257 33.5586 23.9974 33.1485C23.9691 32.7384 23.7119 32.3794 23.3328 32.2205C22.9537 32.0616 22.5174 32.13 22.2052 32.3974ZM19.5736 40.8902C19.5736 41.4908 19.0868 41.9777 18.4862 41.9777H9.78672C9.18614 41.9777 8.69928 41.4908 8.69928 40.8902V32.1908C8.69928 31.5902 9.18614 31.1033 9.78672 31.1033H18.4862C19.0868 31.1033 19.5736 31.5902 19.5736 32.1908V34.2678L15.6262 37.0951L15.1043 36.0077C14.9476 35.6314 14.5936 35.3743 14.1873 35.3417C13.781 35.3092 13.3906 35.5066 13.1759 35.8531C12.9613 36.1996 12.9585 36.6371 13.1686 36.9864L14.2561 39.1612C14.3998 39.4426 14.6589 39.6475 14.9658 39.7227C15.2727 39.7979 15.5971 39.7358 15.8546 39.5527L19.5736 36.9429V40.8902Z" fill="#D68629"/>
<path d="M28.2735 15.8793H46.7599C47.3604 15.8793 47.8473 15.3925 47.8473 14.7919C47.8473 14.1913 47.3604 13.7045 46.7599 13.7045H28.2735C27.6729 13.7045 27.186 14.1913 27.186 14.7919C27.186 15.3925 27.6729 15.8793 28.2735 15.8793Z" fill="#D68629"/>
<path d="M28.2735 22.4039H36.9729C37.5735 22.4039 38.0604 21.917 38.0604 21.3164C38.0604 20.7159 37.5735 20.229 36.9729 20.229H28.2735C27.6729 20.229 27.186 20.7159 27.186 21.3164C27.186 21.917 27.6729 22.4039 28.2735 22.4039Z" fill="#D68629"/>
<path d="M28.2735 33.2783H46.7599C47.3604 33.2783 47.8473 32.7914 47.8473 32.1908C47.8473 31.5903 47.3604 31.1034 46.7599 31.1034H28.2735C27.6729 31.1034 27.186 31.5903 27.186 32.1908C27.186 32.7914 27.6729 33.2783 28.2735 33.2783Z" fill="#D68629"/>
<path d="M28.2735 39.8028H36.9729C37.5735 39.8028 38.0604 39.3159 38.0604 38.7154C38.0604 38.1148 37.5735 37.6279 36.9729 37.6279H28.2735C27.6729 37.6279 27.186 38.1148 27.186 38.7154C27.186 39.3159 27.6729 39.8028 28.2735 39.8028Z" fill="#D68629"/>
<path d="M63.0712 52.8521H60.7006C60.0962 51.162 58.2399 50.2776 56.5466 50.873V49.5898C56.5427 48.2107 55.672 46.983 54.3717 46.5233V8.26731C54.3717 5.86502 52.4243 3.91758 50.022 3.91758H40.2351V2.83014C40.2351 1.629 39.2614 0.655273 38.0602 0.655273H16.3115C15.1104 0.655273 14.1367 1.629 14.1367 2.83014V3.91758H4.34974C1.94744 3.91758 0 5.86502 0 8.26731V61.5516C0 63.9539 1.94744 65.9013 4.34974 65.9013C54.3065 65.9013 50.5657 66.0645 51.7836 65.5207C52.7926 66.0435 54.0008 66.0035 54.9731 65.4153C55.9453 64.8271 56.5414 63.7753 56.5466 62.639V61.3559C58.2399 61.9513 60.0962 61.0669 60.7006 59.3767H63.0712C64.2724 59.3767 65.2461 58.403 65.2461 57.2019V55.027C65.2461 53.8259 64.2724 52.8521 63.0712 52.8521ZM16.3115 2.83014H38.0602V7.17988H16.3115V2.83014ZM2.17487 61.5516V8.26731C2.17487 7.06617 3.14859 6.09245 4.34974 6.09245H14.1367V7.17988C14.1367 8.38103 15.1104 9.35475 16.3115 9.35475H38.0602C39.2614 9.35475 40.2351 8.38103 40.2351 7.17988V6.09245H50.022C51.2231 6.09245 52.1969 7.06617 52.1969 8.26731V46.5233C50.8966 46.983 50.0259 48.2107 50.022 49.5898V52.8521H41.3225V49.5898C41.3225 47.7881 39.8619 46.3275 38.0602 46.3275C36.2585 46.3275 34.7979 47.7881 34.7979 49.5898V50.873C33.1046 50.2776 31.2483 51.162 30.6439 52.8521H28.2733C27.0722 52.8521 26.0984 53.8259 26.0984 55.027V57.2019C26.0984 58.403 27.0722 59.3767 28.2733 59.3767H30.6439C31.2483 61.0669 33.1046 61.9513 34.7979 61.3559C34.7173 62.1514 34.7837 62.9549 34.9936 63.7265H4.34974C3.14859 63.7265 2.17487 62.7528 2.17487 61.5516ZM28.2733 57.2019V55.027H30.4482V57.2019H28.2733ZM32.623 53.9396C32.623 53.339 33.1099 52.8521 33.7105 52.8521C34.311 52.8521 34.7979 53.339 34.7979 53.9396V58.2893C34.7979 58.8899 34.311 59.3767 33.7105 59.3767C33.1099 59.3767 32.623 58.8899 32.623 58.2893V53.9396ZM36.9728 62.639V49.5898C36.9728 48.9893 37.4596 48.5024 38.0602 48.5024C38.6608 48.5024 39.1476 48.9893 39.1476 49.5898V62.639C39.1476 63.2396 38.6608 63.7265 38.0602 63.7265C37.4596 63.7265 36.9728 63.2396 36.9728 62.639ZM41.3225 55.027H50.022V57.2019H41.3225V55.027ZM41.1268 63.7265C41.3878 62.987 41.3225 62.9 41.3225 59.3767H50.022C50.022 62.639 49.9459 62.9218 50.2177 63.7265C49.7719 63.7265 51.7184 63.7265 41.1268 63.7265ZM54.3717 62.639C54.3717 63.2396 53.8849 63.7265 53.2843 63.7265C52.6837 63.7265 52.1969 63.2396 52.1969 62.639V49.5898C52.1969 48.9893 52.6837 48.5024 53.2843 48.5024C53.8849 48.5024 54.3717 48.9893 54.3717 49.5898V62.639ZM57.634 59.3767C57.0335 59.3767 56.5466 58.8899 56.5466 58.2893V53.9396C56.5466 53.339 57.0335 52.8521 57.634 52.8521C58.2346 52.8521 58.7215 53.339 58.7215 53.9396V58.2893C58.7215 58.8899 58.2346 59.3767 57.634 59.3767ZM63.0712 57.2019H60.8963V55.027H63.0712V57.2019Z" fill="#D68629"/>
</svg>
