<svg width="137" height="39" viewBox="0 0 137 39" fill="none" xmlns="http://www.w3.org/2000/svg">
<path opacity="0.5" d="M34.144 31L28.992 23.64C32.032 22.456 33.76 19.96 33.76 16.568C33.76 11.608 30.112 8.6 24.224 8.6H15.008V31H19.168V24.472H24.224C24.512 24.472 24.8 24.472 25.088 24.44L29.664 31H34.144ZM29.568 16.568C29.568 19.384 27.68 21.048 24.032 21.048H19.168V12.12H24.032C27.68 12.12 29.568 13.752 29.568 16.568Z" fill="#D68629"/>
<path d="M20.776 31H25.128L15.016 8.6H10.92L0.84 31H5.128L7.336 25.816H18.536L20.776 31ZM8.744 22.552L12.936 12.76L17.16 22.552H8.744Z" fill="#D68629"/>
<path d="M39.448 9.208H31.128V8.6H48.408V9.208H40.088V31H39.448V9.208ZM63.2513 31L57.5553 23.096C56.8086 23.2453 55.9339 23.32 54.9312 23.32H47.9872V31H47.3472V8.6H54.9312C57.6832 8.6 59.8379 9.25067 61.3953 10.552C62.9526 11.832 63.7313 13.6347 63.7313 15.96C63.7313 17.752 63.2513 19.256 62.2913 20.472C61.3312 21.6667 59.9766 22.488 58.2273 22.936L64.0513 31H63.2513ZM54.9952 22.712C57.5979 22.712 59.5926 22.1253 60.9792 20.952C62.3872 19.7787 63.0912 18.1147 63.0912 15.96C63.0912 13.8053 62.3872 12.1413 60.9792 10.968C59.5926 9.79467 57.5979 9.208 54.9952 9.208H47.9872V22.712H54.9952ZM79.7255 30.392V31H64.8135V8.6H79.2455V9.208H65.4535V19.32H77.8055V19.928H65.4535V30.392H79.7255ZM98.3485 8.6V31H97.8045L81.3885 9.784V31H80.7485V8.6H81.2925L97.7085 29.816V8.6H98.3485ZM116.345 30.392V31H101.433V8.6H115.865V9.208H102.073V19.32H114.425V19.928H102.073V30.392H116.345ZM133.273 31L127.577 23.096C126.83 23.2453 125.955 23.32 124.953 23.32H118.009V31H117.369V8.6H124.953C127.705 8.6 129.859 9.25067 131.417 10.552C132.974 11.832 133.753 13.6347 133.753 15.96C133.753 17.752 133.273 19.256 132.313 20.472C131.353 21.6667 129.998 22.488 128.249 22.936L134.073 31H133.273ZM125.017 22.712C127.619 22.712 129.614 22.1253 131.001 20.952C132.409 19.7787 133.113 18.1147 133.113 15.96C133.113 13.8053 132.409 12.1413 131.001 10.968C129.614 9.79467 127.619 9.208 125.017 9.208H118.009V22.712H125.017Z" fill="#DED9D9"/>
</svg>
