<svg width="54" height="41" viewBox="0 0 54 41" fill="none" xmlns="http://www.w3.org/2000/svg">
<path d="M48.6154 24.1681L40.5538 23.5921L35.2259 14.7167L32.5623 10.2726V9.0417C32.5631 7.7058 31.4808 6.62225 30.1449 6.62143C29.8456 6.62102 29.5488 6.6766 29.2701 6.78446L21.6095 9.7395L22.1883 7.79678C22.6453 6.16364 21.9039 4.43253 20.4066 3.63633L14.3956 0.407112C13.9584 0.172454 13.4138 0.322306 13.1581 0.747572L4.34117 14.8666L4.15509 14.7587C3.70965 14.5026 3.14112 14.6566 2.88547 15.1021C2.8797 15.1115 2.87476 15.121 2.86941 15.1309L0.109092 20.3275C-0.12886 20.7762 0.0370473 21.3324 0.481251 21.5782L34.0517 40.1849C34.1897 40.2611 34.3445 40.301 34.5021 40.301H48.3782C51.4597 40.2981 53.9573 37.8009 53.9602 34.719V29.9073C53.9503 26.8922 51.6223 24.3924 48.6154 24.1681ZM38.6095 23.9688L37.5469 24.3233L29.2223 13.4998L31.3622 11.893L38.6095 23.9688ZM14.2968 2.46593L19.5264 5.27277C20.2514 5.65604 20.6137 6.4901 20.3992 7.28135L19.6306 9.87165L14.2903 6.66919L12.441 5.55929L14.2968 2.46593ZM8.78855 11.3451L9.26487 10.6007L12.3257 12.8773C13.8835 14.0469 14.6789 15.9732 14.4002 17.9015L14.2841 20.5902L5.96937 15.7978L8.78855 11.3451ZM48.3782 38.4406H34.7413L2.17943 20.3917L4.05958 16.8566L34.8883 34.5951C35.0299 34.6766 35.19 34.7195 35.3535 34.719H52.0994C52.0994 36.7742 50.4333 38.4406 48.3782 38.4406ZM52.0994 32.8582H35.6017L29.2207 29.1844L31.3659 26.9972C31.7204 26.6254 31.7064 26.0363 31.3342 25.6818C30.9699 25.3344 30.3952 25.3401 30.0374 25.6946L27.5554 28.2252L24.0199 26.1878L27.5657 23.3513C27.9667 23.0302 28.0317 22.4444 27.7106 22.043C27.3895 21.642 26.8037 21.577 26.4027 21.8981L22.2876 25.1907L19.2584 23.4489L23.8544 19.6186C24.2496 19.2897 24.3031 18.703 23.9746 18.3078C23.6457 17.9126 23.0586 17.8591 22.6634 18.1876L17.5392 22.4588L16.1008 21.6309L16.2515 18.0596C16.5961 15.4866 15.5179 12.9292 13.4356 11.3796L10.2657 9.02276L11.4632 7.14262L19.6985 12.0836C19.8092 12.1474 19.9319 12.1869 20.0587 12.2001C20.081 12.2001 20.1003 12.2075 20.1229 12.2092C20.1452 12.2112 20.1592 12.2158 20.1769 12.2158C20.2917 12.2162 20.4062 12.1952 20.5136 12.1536L29.9378 8.51887C30.1103 8.453 30.3034 8.47564 30.4561 8.57938C30.6093 8.68436 30.7003 8.8585 30.699 9.04458V10.068L27.3496 12.5797C26.9387 12.8884 26.856 13.4718 27.1647 13.8822C27.1668 13.8851 27.1689 13.888 27.1709 13.8905L36.4745 25.9852C36.7149 26.3002 37.1295 26.427 37.5053 26.3006L40.1203 25.4286L48.4807 26.026C50.5153 26.1767 52.0916 27.867 52.0994 29.9073V32.8582Z" fill="#D68629"/>
<path d="M5.58198 27.2761H0.930398C0.416621 27.2761 0 27.6927 0 28.2065C0 28.7203 0.416621 29.1369 0.930398 29.1369H5.58198C6.09575 29.1369 6.51238 28.7203 6.51238 28.2065C6.51238 27.6927 6.09575 27.2761 5.58198 27.2761Z" fill="#D68629"/>
<path d="M0 33.7886C0 34.3023 0.416621 34.719 0.930398 34.719H13.0247C13.5385 34.719 13.9551 34.3023 13.9551 33.7886C13.9551 33.2748 13.5385 32.8582 13.0247 32.8582H0.930398C0.416621 32.8582 0 33.2748 0 33.7886Z" fill="#D68629"/>
<path d="M23.2587 38.4406H0.930398C0.416621 38.4406 0 38.8568 0 39.3705C0 39.8843 0.416621 40.3009 0.930398 40.3009H23.2587C23.7725 40.3009 24.1887 39.8843 24.1887 39.3705C24.1887 38.8568 23.7725 38.4406 23.2587 38.4406Z" fill="#D68629"/>
</svg>
