<svg width="59" height="59" viewBox="0 0 59 59" fill="none" xmlns="http://www.w3.org/2000/svg">
<g clip-path="url(#clip0)">
<path d="M55.0662 13.865V10.8167C55.0662 8.64438 53.3052 6.88345 51.1329 6.88345H50.1498V4.8664C51.385 4.61298 52.2285 3.46603 52.1016 2.21106C51.9746 0.956535 50.9191 0.00135041 49.6583 0H42.7748C41.5135 0.00135041 40.458 0.956535 40.331 2.21106C40.2045 3.46603 41.0476 4.61298 42.2833 4.8664V6.88345H41.2997C39.1274 6.88345 37.3664 8.64438 37.3664 10.8167V13.865C35.0789 14.3354 33.4359 16.348 33.4332 18.6833V28.5165C33.4341 29.7899 33.9315 31.0125 34.8196 31.9249C34.0008 32.4376 33.4858 33.3198 33.4431 34.2849C33.2788 34.2651 33.1194 34.2287 32.9511 34.2251C32.5703 32.0505 30.9687 30.2909 28.8391 29.708C26.7095 29.125 24.435 29.8236 23 31.5013C22.5449 31.5337 22.0961 31.6224 21.6626 31.7646C21.429 29.3798 20.2055 27.2025 18.2897 25.7634C17.8554 25.4375 17.2387 25.5253 16.9132 25.9601C16.5873 26.3945 16.6751 27.0108 17.1095 27.3367C18.5342 28.4098 19.465 30.0132 19.6901 31.7822C19.0185 31.5405 18.3055 31.4329 17.5925 31.4666C16.5378 31.5418 15.5673 32.0703 14.9317 32.9152C13.9964 32.0257 12.8773 31.3523 11.653 30.9427C12.122 29.951 12.7373 29.0364 13.4792 28.2284C13.8631 27.8444 13.8631 27.2214 13.4787 26.8375C13.0943 26.4535 12.4718 26.4539 12.0878 26.8379C11.6746 27.2709 11.2974 27.7368 10.9589 28.2306C10.6357 27.7098 10.1635 27.2984 9.60306 27.0504C7.65802 26.205 5.41186 27.7013 5.16203 27.8746C4.78347 28.137 4.63762 28.6276 4.81228 29.0544C5.08236 29.7381 5.41636 30.3944 5.80932 31.0152C3.17604 31.9789 1.15494 34.1332 0.361348 36.8228C-0.431788 39.5123 0.0966695 42.4189 1.78557 44.6569C1.45292 44.8428 1.15944 45.0913 0.920865 45.3888C0.3663 46.0897 0.168241 47.008 0.384305 47.8754C1.65458 52.8566 5.25746 56.915 10.0532 58.7659C10.4232 58.9203 10.8207 59 11.2213 59H32.0468C32.446 59 32.8421 58.9208 33.2108 58.7668C33.8752 58.4828 34.5234 58.1618 35.1518 57.8053C36.0403 58.5737 37.1751 58.9977 38.3495 59H54.0831C56.7969 58.9968 58.9963 56.7975 58.9999 54.0832V44.25C58.9985 42.9779 58.502 41.7558 57.6153 40.8438C57.7994 40.7295 57.9695 40.5945 58.1226 40.4405C58.687 39.8918 59.0035 39.1369 58.9999 38.3501C58.9972 37.6218 58.7235 36.9209 58.2329 36.3835C58.8207 35.7411 59.0913 34.8706 58.9715 34.0085C58.8518 33.1461 58.354 32.3822 57.613 31.9249C58.5011 31.0125 58.9985 29.7899 58.9999 28.5165V18.6833C58.9967 16.348 57.3542 14.3354 55.0662 13.865ZM42.7748 1.96664H49.6583C49.9297 1.96664 50.1498 2.18675 50.1498 2.45818C50.1498 2.73006 49.9297 2.95018 49.6583 2.95018H42.7748C42.5034 2.95018 42.2833 2.73006 42.2833 2.45818C42.2833 2.18675 42.5034 1.96664 42.7748 1.96664ZM44.2499 4.91682H48.1832V6.88345H44.2499V4.91682ZM39.3331 10.8167C39.3331 9.73055 40.2135 8.85009 41.2997 8.85009H51.1329C52.2191 8.85009 53.0995 9.73055 53.0995 10.8167V13.7665H39.3331V10.8167ZM35.3998 18.6833C35.3998 17.0542 36.7205 15.7335 38.3495 15.7335H54.0831C55.7121 15.7335 57.0333 17.0542 57.0333 18.6833V28.5165C57.0333 30.1459 55.7121 31.4666 54.0831 31.4666H38.3495C36.7205 31.4666 35.3998 30.1459 35.3998 28.5165V18.6833ZM56.0497 33.4333C56.5926 33.4333 57.0333 33.8735 57.0333 34.4168C57.0333 34.9597 56.5926 35.3999 56.0497 35.3999H36.3829C35.84 35.3999 35.3998 34.9597 35.3998 34.4168C35.3998 33.8735 35.84 33.4333 36.3829 33.4333H56.0497ZM57.0333 38.3501C57.0337 38.6148 56.9248 38.8686 56.7321 39.05C56.553 39.2337 56.3063 39.3359 56.0497 39.3332H37.7459C37.7459 39.2675 37.7599 39.2017 37.7599 39.1365C37.7572 38.5306 37.6415 37.9301 37.4187 37.3665H56.0497C56.5926 37.3665 57.0333 37.8068 57.0333 38.3501ZM31.0731 35.282C31.0731 35.5755 31.2041 35.8532 31.4301 36.04C31.6565 36.2268 31.954 36.3029 32.2421 36.2475C32.4402 36.2084 32.6414 36.1881 32.843 36.1867C34.4721 36.1867 35.7932 37.5074 35.7932 39.1365C35.791 39.4295 35.7491 39.7203 35.669 40.0021C35.5492 40.4477 35.7559 40.9172 36.1659 41.1297C36.8974 41.501 37.361 42.2496 37.3664 43.0702C37.3664 43.4902 37.2413 43.9011 37.0063 44.25H30.2125C30.3894 43.5424 30.4798 42.8159 30.483 42.0867C30.4627 39.4556 29.3315 36.9556 27.369 35.2032C27.301 34.8755 27.2114 34.5528 27.1002 34.2368C26.7937 33.3315 26.1941 32.5546 25.3965 32.028C25.9785 31.6651 26.6501 31.4707 27.3365 31.4666C28.3394 31.4725 29.2982 31.8785 30.0004 32.5951C30.7022 33.3117 31.0884 34.2791 31.0731 35.282ZM12.6964 44.25C11.9829 42.0079 12.42 39.5583 13.8645 37.701C13.9446 38.1718 14.0913 38.6287 14.3011 39.0582C14.5806 39.6145 14.9844 40.0989 15.4814 40.4738C16.0697 40.9037 16.7507 41.1895 17.4696 41.3079C17.5565 41.3093 17.6429 41.298 17.7262 41.2746C18.0291 41.1823 18.2731 40.9564 18.3879 40.662V40.6512C18.4 40.6174 19.2728 38.3501 20.6498 38.3501C22.0263 38.3501 22.8964 40.6174 22.9113 40.6512V40.662C23.0265 40.9564 23.2705 41.1823 23.573 41.2746C23.6567 41.298 23.7431 41.3093 23.83 41.3079C24.5493 41.1891 25.2313 40.9033 25.82 40.4729C26.3165 40.0984 26.7203 39.6145 26.9998 39.0591C27.1421 38.7669 27.2551 38.4617 27.3374 38.1475C28.5258 39.9499 28.8355 42.1933 28.1792 44.25H12.6964ZM16.5455 39.9715C16.5653 39.9179 16.59 39.8666 16.6188 39.8171C16.5972 39.8742 16.5788 39.9283 16.5621 39.9782L16.5455 39.9715ZM24.6803 39.8171C24.7091 39.8666 24.7339 39.9179 24.7541 39.9715L24.7375 39.9782C24.7208 39.9233 24.7019 39.8742 24.6812 39.8171H24.6803ZM17.7055 33.4333C18.4185 33.4031 19.1234 33.5953 19.7225 33.9829C19.7059 34.1206 19.6901 34.2062 19.6852 34.23C19.5825 34.7589 19.9251 35.2721 20.4531 35.3806C20.5179 35.3941 20.5836 35.4004 20.6498 35.3999C21.1166 35.3995 21.519 35.0709 21.6122 34.6135C21.6558 34.3759 21.6869 34.1364 21.7058 33.8956C22.2806 33.5656 22.9374 33.4054 23.5995 33.4333C24.3886 33.5593 25.0337 34.1305 25.2538 34.8985C25.3551 35.1834 25.4334 35.476 25.4878 35.7735C25.4878 35.7857 25.4928 35.7951 25.4937 35.8073C25.662 36.6054 25.5747 37.4363 25.2439 38.1817C25.1097 38.4523 24.9175 38.6899 24.6812 38.8781C24.6204 38.9164 24.4845 38.9902 24.3391 39.069C23.7098 37.9045 22.4818 36.3835 20.6498 36.3835C18.8178 36.3835 17.5884 37.9054 16.9641 39.0667C16.8255 38.9951 16.7075 38.9303 16.6621 38.9029C16.4086 38.7106 16.2025 38.4626 16.0607 38.1781C15.625 37.1275 15.6218 35.9482 16.0517 34.8958C16.2722 34.1283 16.9173 33.558 17.7055 33.4333ZM8.82117 28.8559C9.34603 29.2232 9.67553 29.8088 9.71784 30.448L9.68633 30.5236C9.09755 30.4705 8.50428 30.4759 7.9164 30.5403C7.53964 30.1095 7.22635 29.6269 6.98733 29.1066C7.54369 28.791 8.20044 28.7015 8.82117 28.8559ZM7.71114 32.5384C8.16037 32.4722 8.61501 32.4452 9.0692 32.4569C8.9265 33.1006 8.85268 33.7574 8.84953 34.4168C8.84953 34.9597 9.28976 35.3999 9.83307 35.3999C10.3759 35.3999 10.8162 34.9597 10.8162 34.4168C10.8193 33.8789 10.8823 33.3428 11.0043 32.8188C12.1544 33.2006 13.1821 33.8821 13.9815 34.7922C11.7317 36.546 10.4097 39.2342 10.3935 42.0867C10.3966 42.8159 10.4876 43.5424 10.664 44.25H4.04705C2.18934 42.4418 1.50649 39.7428 2.28072 37.2684C3.0545 34.7945 5.15393 32.9656 7.71114 32.5384ZM32.4447 56.9555C32.32 57.0073 32.1863 57.0334 32.0513 57.0334H11.2213C11.0826 57.0343 10.9449 57.0077 10.8162 56.9546C6.57815 55.3647 3.39075 51.7943 2.28972 47.4036C2.2195 47.1228 2.28477 46.8257 2.46573 46.6002C2.65478 46.3575 2.94512 46.2157 3.25256 46.2166H40.0096C40.3171 46.2157 40.6074 46.3575 40.796 46.6002C40.9774 46.8257 41.0427 47.1228 40.9725 47.4036C39.8458 51.7812 36.6674 55.3418 32.4447 56.9555ZM57.0333 54.0832C57.0333 55.7127 55.7121 57.0334 54.0831 57.0334H38.3495C37.8553 57.0289 37.3705 56.8992 36.9397 56.6566C39.8903 54.5185 41.9938 51.4098 42.8819 47.8754C43.098 47.008 42.8995 46.0897 42.3449 45.3888C41.7845 44.6682 40.9225 44.2477 40.0096 44.25H39.1413C39.4573 43.2768 39.3812 42.2185 38.9298 41.2998H54.0831C55.7121 41.2998 57.0333 42.621 57.0333 44.25V54.0832Z" fill="#D68629"/>
<path d="M38.3496 20.6499C38.893 20.6499 39.3332 20.2097 39.3332 19.6668V18.6833C39.3332 18.1404 38.893 17.7002 38.3496 17.7002C37.8068 17.7002 37.3665 18.1404 37.3665 18.6833V19.6668C37.3665 20.2097 37.8068 20.6499 38.3496 20.6499Z" fill="#D68629"/>
<path d="M38.3496 29.4997C38.893 29.4997 39.3332 29.0594 39.3332 28.5161V23.5998C39.3332 23.0564 38.893 22.6162 38.3496 22.6162C37.8068 22.6162 37.3665 23.0564 37.3665 23.5998V28.5161C37.3665 29.0594 37.8068 29.4997 38.3496 29.4997Z" fill="#D68629"/>
<path d="M6.88296 48.1836H5.89986C5.35655 48.1836 4.91632 48.6238 4.91632 49.1671C4.91632 49.71 5.35655 50.1502 5.89986 50.1502H6.88296C7.42627 50.1502 7.8665 49.71 7.8665 49.1671C7.8665 48.6238 7.42627 48.1836 6.88296 48.1836Z" fill="#D68629"/>
<path d="M38.3496 49.1671C38.3496 48.6238 37.9094 48.1836 37.3666 48.1836H10.8163C10.2734 48.1836 9.83319 48.6238 9.83319 49.1671C9.83319 49.71 10.2734 50.1502 10.8163 50.1502H37.3666C37.9094 50.1502 38.3496 49.71 38.3496 49.1671Z" fill="#D68629"/>
</g>
<defs>
<clipPath id="clip0">
<rect width="59" height="59" fill="white"/>
</clipPath>
</defs>
</svg>
