<svg width="54" height="55" viewBox="0 0 54 55" fill="none" xmlns="http://www.w3.org/2000/svg">
<path d="M10.7917 9.2946H11.6912C12.1877 9.2946 12.5903 8.89198 12.5903 8.39549C12.5903 7.8986 12.1877 7.49597 11.6912 7.49597H10.7917C10.2952 7.49597 9.89258 7.8986 9.89258 8.39549C9.89258 8.89198 10.2952 9.2946 10.7917 9.2946Z" fill="#D68629"/>
<path d="M15.2884 9.29458H26.9796C27.4761 9.29458 27.8787 8.89196 27.8787 8.39548C27.8787 7.89859 27.4761 7.49597 26.9796 7.49597H15.2884C14.7919 7.49597 14.3889 7.89859 14.3889 8.39548C14.3889 8.89196 14.7919 9.29458 15.2884 9.29458Z" fill="#D68629"/>
<path d="M45.7959 29.0797H43.8417C43.8355 29.0797 43.8289 29.0797 43.8228 29.0797C43.4136 29.0805 43.0068 29.1411 42.6149 29.2596C42.5844 29.2666 42.5544 29.2753 42.5252 29.2856C42.0489 29.4506 41.6063 29.7009 41.2193 30.0241C41.4145 27.9554 42.4387 24.9519 46.3257 22.6568C46.7395 22.3987 46.872 21.8573 46.6242 21.437C46.376 21.0167 45.8383 20.8705 45.4118 21.1081C42.9974 22.4196 41.1139 24.5303 40.0843 27.0777C40.0366 26.9221 39.9855 26.7702 39.9296 26.6282C39.4792 25.4434 38.7369 24.3916 37.7711 23.5707V8.39554C37.7711 6.90528 36.5633 5.69742 35.0734 5.69742H31.3107C30.9308 4.62336 29.9172 3.90376 28.7781 3.89882H23.9603C23.2045 1.7437 21.1695 0.300781 18.8856 0.300781C16.6016 0.300781 14.5667 1.7437 13.8109 3.89882H8.99303C7.85393 3.90376 6.84039 4.62336 6.46082 5.69742H2.69812C1.20785 5.69742 0 6.90528 0 8.39554V51.5625C0 53.0528 1.20785 54.2606 2.69812 54.2606H35.0734C35.4938 54.261 35.9083 54.161 36.2821 53.9683C37.1034 54.161 37.9445 54.2594 38.7884 54.2606H42.1501C48.6612 54.2606 53.959 48.6137 53.959 41.67V37.7759C53.959 32.9828 50.2972 29.0797 45.7959 29.0797ZM38.2479 27.2721C38.4817 27.9777 38.6501 28.703 38.7505 29.4395C38.6608 29.4008 38.5805 29.3494 38.4899 29.3197C38.0474 29.1608 37.5805 29.0797 37.1104 29.0797C37.103 29.0797 37.0976 29.0797 37.0906 29.0797H35.1426C34.896 29.0797 34.6535 29.0966 34.4123 29.1192C34.3901 29.1131 34.3736 29.0987 34.3501 29.0941C31.3737 28.498 31.4149 25.0255 31.5273 23.7827C32.1012 23.7164 32.6783 23.6843 33.2559 23.6864H33.2748C35.5259 23.7065 37.5196 25.1453 38.2479 27.2758V27.2721ZM29.1107 48.8648H5.39582V11.0932H6.46082C6.84039 12.1673 7.85393 12.8873 8.99303 12.8918H28.7781C29.9172 12.8873 30.9308 12.1673 31.3107 11.0932H32.3753V21.8985C30.0527 21.9812 29.8987 22.628 29.8159 22.9976C29.4994 24.8477 29.6603 28.1238 31.8015 29.8533C28.8098 31.353 26.9371 34.4298 26.9795 37.7759V41.67C26.9721 44.2248 27.7131 46.7262 29.1107 48.8648ZM35.9725 8.39554V22.4686C35.397 22.227 34.7923 22.0615 34.1739 21.9759V11.0932C34.1739 10.0999 33.3687 9.29464 32.3753 9.29464H31.4762V7.49603H35.0734C35.5699 7.49603 35.9725 7.89865 35.9725 8.39554ZM8.99303 5.69742H14.479C14.5095 5.6929 14.5391 5.68672 14.5688 5.67849C14.6252 5.67272 14.6803 5.66161 14.7342 5.64514C14.7915 5.62826 14.8466 5.60521 14.8989 5.5768C15.0484 5.49653 15.171 5.37385 15.2513 5.22441C15.2805 5.17213 15.304 5.11696 15.3209 5.05974C15.3345 5.03257 15.3464 5.00499 15.3567 4.97617C15.6988 3.30189 17.1722 2.09939 18.881 2.09939C20.5903 2.09939 22.0633 3.30189 22.4054 4.97617C22.4161 5.00869 22.4289 5.04039 22.4433 5.07168C22.4573 5.11532 22.4741 5.15854 22.4939 5.20012C22.524 5.25817 22.561 5.31292 22.6034 5.36273C22.6293 5.3969 22.6573 5.4286 22.6878 5.45824C22.7413 5.50435 22.7998 5.54387 22.8624 5.57598C22.9887 5.66202 23.1398 5.70483 23.2921 5.69742H28.7781C29.275 5.69742 29.6776 6.10004 29.6776 6.59693V10.1941C29.6776 10.6906 29.275 11.0932 28.7781 11.0932H8.99303C8.49655 11.0932 8.09394 10.6906 8.09394 10.1941V6.59693C8.09394 6.10004 8.49655 5.69742 8.99303 5.69742ZM2.69812 52.462C2.20122 52.462 1.79861 52.0594 1.79861 51.5625V8.39554C1.79861 7.89865 2.20122 7.49603 2.69812 7.49603H6.29533V9.29464H5.39582C4.40245 9.29464 3.59721 10.0999 3.59721 11.0932V48.8648C3.59721 49.8582 4.40245 50.6634 5.39582 50.6634H30.5388C31.1975 51.3476 31.9344 51.9511 32.7351 52.462H2.69812ZM52.1604 41.67C52.1604 47.6199 47.669 52.462 42.1501 52.462H38.7884C33.2695 52.462 28.7781 47.622 28.7781 41.67V37.7759C28.7781 33.9745 31.6335 30.8783 35.1426 30.8783H37.1256C37.3829 30.8808 37.6378 30.9265 37.8802 31.0134C38.9259 31.432 39.6002 32.4583 39.5698 33.5843V34.4755C39.5698 34.9724 39.9724 35.375 40.4693 35.375C40.9657 35.375 41.3684 34.9724 41.3684 34.4755V33.5818C41.335 32.4571 42.004 31.43 43.0468 31.0068L43.09 30.9944C43.3226 30.9195 43.5651 30.88 43.8092 30.8767H45.7951C49.305 30.8783 52.1604 33.9745 52.1604 37.7759V41.67Z" fill="#D68629"/>
<path d="M33.8899 32.7229C33.754 32.767 30.5767 33.8756 30.5767 38.0727C30.5767 38.5696 30.9793 38.9722 31.4762 38.9722C31.9727 38.9722 32.3753 38.5696 32.3753 38.0727C32.3753 35.2185 34.3645 34.4631 34.4662 34.4269C34.9368 34.268 35.1895 33.7571 35.0302 33.2865C34.8709 32.816 34.3604 32.5636 33.8899 32.7229Z" fill="#D68629"/>
<path d="M11.6911 15.59H8.99297C7.99958 15.59 7.19434 16.3952 7.19434 17.3886V20.0868C7.19434 21.0801 7.99958 21.8854 8.99297 21.8854H11.6911C12.6845 21.8854 13.4898 21.0801 13.4898 20.0868V17.3886C13.4898 16.3952 12.6845 15.59 11.6911 15.59ZM8.99297 20.0868V17.3886H11.6911V20.0868H8.99297Z" fill="#D68629"/>
<path d="M11.6911 23.6838H8.99297C7.99958 23.6838 7.19434 24.4891 7.19434 25.4825V28.1802C7.19434 29.1736 7.99958 29.9793 8.99297 29.9793H11.6911C12.6845 29.9793 13.4898 29.1736 13.4898 28.1802V25.4825C13.4898 24.4891 12.6845 23.6838 11.6911 23.6838ZM8.99297 28.1802V25.4825H11.6911V28.1802H8.99297Z" fill="#D68629"/>
<path d="M11.6911 31.7777H8.99297C7.99958 31.7777 7.19434 32.583 7.19434 33.5763V36.2741C7.19434 37.2675 7.99958 38.0727 8.99297 38.0727H11.6911C12.6845 38.0727 13.4898 37.2675 13.4898 36.2741V33.5763C13.4898 32.583 12.6845 31.7777 11.6911 31.7777ZM8.99297 36.2741V33.5763H11.6911V36.2741H8.99297Z" fill="#D68629"/>
<path d="M11.6911 39.8712H8.99297C7.99958 39.8712 7.19434 40.6765 7.19434 41.6698V44.368C7.19434 45.3614 7.99958 46.1666 8.99297 46.1666H11.6911C12.6845 46.1666 13.4898 45.3614 13.4898 44.368V41.6698C13.4898 40.6765 12.6845 39.8712 11.6911 39.8712ZM8.99297 44.368V41.6698H11.6911V44.368H8.99297Z" fill="#D68629"/>
<path d="M16.1876 20.0867H28.7778C29.2747 20.0867 29.6773 19.6841 29.6773 19.1872C29.6773 18.6907 29.2747 18.2881 28.7778 18.2881H16.1876C15.6907 18.2881 15.2881 18.6907 15.2881 19.1872C15.2881 19.6841 15.6907 20.0867 16.1876 20.0867Z" fill="#D68629"/>
<path d="M26.0797 26.3816H16.1876C15.6907 26.3816 15.2881 26.7842 15.2881 27.2811C15.2881 27.7776 15.6907 28.1802 16.1876 28.1802H26.0797C26.5766 28.1802 26.9792 27.7776 26.9792 27.2811C26.9792 26.7842 26.5766 26.3816 26.0797 26.3816Z" fill="#D68629"/>
<path d="M24.2811 34.4755H16.1876C15.6907 34.4755 15.2881 34.8781 15.2881 35.375C15.2881 35.8715 15.6907 36.2741 16.1876 36.2741H24.2811C24.778 36.2741 25.1806 35.8715 25.1806 35.375C25.1806 34.8781 24.778 34.4755 24.2811 34.4755Z" fill="#D68629"/>
<path d="M24.2811 42.5695H16.1876C15.6907 42.5695 15.2881 42.9721 15.2881 43.469C15.2881 43.9654 15.6907 44.3681 16.1876 44.3681H24.2811C24.778 44.3681 25.1806 43.9654 25.1806 43.469C25.1806 42.9721 24.778 42.5695 24.2811 42.5695Z" fill="#D68629"/>
</svg>
