<svg width="59" height="60" viewBox="0 0 59 60" fill="none" xmlns="http://www.w3.org/2000/svg">
<path d="M11.7429 10.4835H12.7218C13.262 10.4835 13.7001 10.0454 13.7001 9.50518C13.7001 8.96448 13.262 8.52637 12.7218 8.52637H11.7429C11.2027 8.52637 10.7646 8.96448 10.7646 9.50518C10.7646 10.0454 11.2027 10.4835 11.7429 10.4835Z" fill="#D68629"/>
<path d="M16.6358 10.4835H29.3575C29.8978 10.4835 30.3359 10.0454 30.3359 9.50517C30.3359 8.96447 29.8978 8.52637 29.3575 8.52637H16.6358C16.0956 8.52637 15.657 8.96447 15.657 9.50517C15.657 10.0454 16.0956 10.4835 16.6358 10.4835Z" fill="#D68629"/>
<path d="M49.8328 32.013H47.7063C47.6996 32.013 47.6924 32.013 47.6857 32.013C47.2404 32.0139 46.7978 32.0798 46.3713 32.2088C46.3382 32.2164 46.3055 32.2258 46.2737 32.237C45.7554 32.4166 45.2738 32.689 44.8527 33.0406C45.0651 30.7896 46.1796 27.5213 50.4093 25.0239C50.8595 24.743 51.0037 24.154 50.7341 23.6966C50.4639 23.2392 49.8789 23.0802 49.4148 23.3387C46.7875 24.7659 44.7381 27.0626 43.6177 29.8346C43.5658 29.6652 43.5102 29.4999 43.4493 29.3454C42.9592 28.0562 42.1515 26.9116 41.1006 26.0184V9.50556C41.1006 7.88394 39.7863 6.56961 38.1651 6.56961H34.0707C33.6573 5.40088 32.5544 4.61784 31.3149 4.61246H26.0723C25.2499 2.26738 23.0356 0.697266 20.5503 0.697266C18.065 0.697266 15.8507 2.26738 15.0283 4.61246H9.78575C8.54624 4.61784 7.44335 5.40088 7.03033 6.56961H2.93595C1.31432 6.56961 0 7.88394 0 9.50556V56.4776C0 58.0993 1.31432 59.4136 2.93595 59.4136H38.1651C38.6225 59.414 39.0736 59.3052 39.4803 59.0955C40.374 59.3052 41.2892 59.4122 42.2075 59.4136H45.8656C52.9506 59.4136 58.7154 53.2689 58.7154 45.7131V41.4758C58.7154 36.2602 54.7308 32.013 49.8328 32.013ZM41.6194 30.046C41.8738 30.8138 42.057 31.6031 42.1663 32.4045C42.0687 32.3624 41.9813 32.3064 41.8828 32.2742C41.4012 32.1013 40.8932 32.013 40.3816 32.013C40.3736 32.013 40.3677 32.013 40.3601 32.013H38.2404C37.972 32.013 37.7082 32.0314 37.4457 32.056C37.4215 32.0493 37.4036 32.0336 37.378 32.0287C34.1393 31.38 34.1841 27.6015 34.3064 26.2491C34.9308 26.177 35.5589 26.142 36.1874 26.1443H36.208C38.6574 26.1662 40.8269 27.7318 41.6194 30.05V30.046ZM31.6768 53.5421H5.87145V12.4411H7.03033C7.44335 13.6098 8.54624 14.3933 9.78575 14.3982H31.3149C32.5544 14.3933 33.6573 13.6098 34.0707 12.4411H35.2292V24.1988C32.7018 24.2888 32.5342 24.9925 32.4442 25.3948C32.0997 27.408 32.2748 30.9729 34.6047 32.8547C31.3494 34.4867 29.3116 37.8347 29.3577 41.4758V45.7131C29.3496 48.4931 30.156 51.215 31.6768 53.5421ZM39.1435 9.50556V24.8192C38.5172 24.5562 37.8591 24.3761 37.1863 24.283V12.4411C37.1863 11.3601 36.3101 10.4839 35.2292 10.4839H34.2508V8.52676H38.1651C38.7054 8.52676 39.1435 8.96487 39.1435 9.50556ZM9.78575 6.56961H15.7553C15.7885 6.56469 15.8207 6.55797 15.853 6.54901C15.9143 6.54274 15.9744 6.53064 16.033 6.51272C16.0953 6.49436 16.1553 6.46927 16.2122 6.43836C16.3748 6.35101 16.5083 6.21751 16.5957 6.0549C16.6275 5.99801 16.653 5.93799 16.6714 5.87572C16.6862 5.84615 16.6992 5.81614 16.7104 5.78478C17.0826 3.96292 18.6859 2.65442 20.5454 2.65442C22.4053 2.65442 24.0081 3.96292 24.3804 5.78478C24.392 5.82017 24.4059 5.85466 24.4216 5.88871C24.4368 5.93619 24.4552 5.98323 24.4767 6.02847C24.5094 6.09164 24.5497 6.15122 24.5959 6.20542C24.6241 6.2426 24.6545 6.27709 24.6877 6.30935C24.7459 6.35952 24.8095 6.40252 24.8776 6.43746C25.0152 6.53109 25.1796 6.57768 25.3453 6.56961H31.3149C31.8556 6.56961 32.2937 7.00772 32.2937 7.54841V11.4627C32.2937 12.003 31.8556 12.4411 31.3149 12.4411H9.78575C9.24551 12.4411 8.8074 12.003 8.8074 11.4627V7.54841C8.8074 7.00772 9.24551 6.56961 9.78575 6.56961ZM2.93595 57.4564C2.39526 57.4564 1.95715 57.0183 1.95715 56.4776V9.50556C1.95715 8.96487 2.39526 8.52676 2.93595 8.52676H6.85025V10.4839H5.87145C4.79052 10.4839 3.9143 11.3601 3.9143 12.4411V53.5421C3.9143 54.6231 4.79052 55.4993 5.87145 55.4993H33.2308C33.9475 56.2438 34.7494 56.9005 35.6207 57.4564H2.93595ZM56.7583 45.7131C56.7583 52.1875 51.871 57.4564 45.8656 57.4564H42.2075C36.2021 57.4564 31.3149 52.1897 31.3149 45.7131V41.4758C31.3149 37.3393 34.4219 33.9702 38.2404 33.9702H40.3982C40.6782 33.9729 40.9555 34.0226 41.2193 34.1171C42.3571 34.5727 43.0909 35.6895 43.0578 36.9146V37.8845C43.0578 38.4252 43.4959 38.8633 44.0366 38.8633C44.5768 38.8633 45.0149 38.4252 45.0149 37.8845V36.9119C44.9786 35.6881 45.7066 34.5704 46.8413 34.1099L46.8883 34.0965C47.1414 34.015 47.4052 33.972 47.6709 33.9684H49.8319C53.6512 33.9702 56.7583 37.3393 56.7583 41.4758V45.7131Z" fill="#D68629"/>
<path d="M36.877 35.9777C36.7292 36.0257 33.2718 37.2321 33.2718 41.7991C33.2718 42.3398 33.7099 42.7779 34.2506 42.7779C34.7908 42.7779 35.2289 42.3398 35.2289 41.7991C35.2289 38.6933 37.3935 37.8713 37.5042 37.8319C38.0162 37.659 38.2913 37.103 38.1179 36.591C37.9445 36.079 37.389 35.8044 36.877 35.9777Z" fill="#D68629"/>
<path d="M12.722 17.333H9.78596C8.70501 17.333 7.82878 18.2092 7.82878 19.2902V22.2262C7.82878 23.3071 8.70501 24.1834 9.78596 24.1834H12.722C13.8029 24.1834 14.6791 23.3071 14.6791 22.2262V19.2902C14.6791 18.2092 13.8029 17.333 12.722 17.333ZM9.78596 22.2262V19.2902H12.722V22.2262H9.78596Z" fill="#D68629"/>
<path d="M12.722 26.1416H9.78596C8.70501 26.1416 7.82878 27.0178 7.82878 28.0988V31.0343C7.82878 32.1153 8.70501 32.992 9.78596 32.992H12.722C13.8029 32.992 14.6791 32.1153 14.6791 31.0343V28.0988C14.6791 27.0178 13.8029 26.1416 12.722 26.1416ZM9.78596 31.0343V28.0988H12.722V31.0343H9.78596Z" fill="#D68629"/>
<path d="M12.722 34.9492H9.78596C8.70501 34.9492 7.82878 35.8254 7.82878 36.9064V39.8419C7.82878 40.9229 8.70501 41.7991 9.78596 41.7991H12.722C13.8029 41.7991 14.6791 40.9229 14.6791 39.8419V36.9064C14.6791 35.8254 13.8029 34.9492 12.722 34.9492ZM9.78596 39.8419V36.9064H12.722V39.8419H9.78596Z" fill="#D68629"/>
<path d="M12.722 43.7559H9.78596C8.70501 43.7559 7.82878 44.6321 7.82878 45.713V48.649C7.82878 49.73 8.70501 50.6062 9.78596 50.6062H12.722C13.8029 50.6062 14.6791 49.73 14.6791 48.649V45.713C14.6791 44.6321 13.8029 43.7559 12.722 43.7559ZM9.78596 48.649V45.713H12.722V48.649H9.78596Z" fill="#D68629"/>
<path d="M17.6144 22.2277H31.3145C31.8552 22.2277 32.2933 21.7896 32.2933 21.2489C32.2933 20.7086 31.8552 20.2705 31.3145 20.2705H17.6144C17.0737 20.2705 16.6356 20.7086 16.6356 21.2489C16.6356 21.7896 17.0737 22.2277 17.6144 22.2277Z" fill="#D68629"/>
<path d="M28.3785 29.0762H17.6144C17.0737 29.0762 16.6356 29.5143 16.6356 30.055C16.6356 30.5952 17.0737 31.0333 17.6144 31.0333H28.3785C28.9192 31.0333 29.3573 30.5952 29.3573 30.055C29.3573 29.5143 28.9192 29.0762 28.3785 29.0762Z" fill="#D68629"/>
<path d="M26.4214 37.8848H17.6144C17.0737 37.8848 16.6356 38.3229 16.6356 38.8636C16.6356 39.4038 17.0737 39.8419 17.6144 39.8419H26.4214C26.9621 39.8419 27.4002 39.4038 27.4002 38.8636C27.4002 38.3229 26.9621 37.8848 26.4214 37.8848Z" fill="#D68629"/>
<path d="M26.4214 46.6924H17.6144C17.0737 46.6924 16.6356 47.1305 16.6356 47.6712C16.6356 48.2114 17.0737 48.6495 17.6144 48.6495H26.4214C26.9621 48.6495 27.4002 48.2114 27.4002 47.6712C27.4002 47.1305 26.9621 46.6924 26.4214 46.6924Z" fill="#D68629"/>
</svg>
