<svg width="61" height="48" viewBox="0 0 61 48" fill="none" xmlns="http://www.w3.org/2000/svg">
<path d="M25.8846 24.3035C25.4946 24.3035 25.1504 24.0485 25.0367 23.6752L22.3439 14.8298H14.2785C13.7887 14.8298 13.3918 14.4329 13.3918 13.9431C13.3918 13.4538 13.7887 13.0569 14.2785 13.0569H23.0005C23.3909 13.0569 23.7351 13.312 23.8488 13.6853L25.8846 20.3734L28.8583 10.6058C28.9715 10.2325 29.3162 9.97742 29.7061 9.97742C30.0961 9.97742 30.4403 10.2325 30.554 10.6058L31.8408 14.833H39.6364C40.1257 14.833 40.5226 15.2299 40.5226 15.7197C40.5226 16.209 40.1257 16.6059 39.6364 16.6059H31.1842C30.7942 16.6059 30.4496 16.3508 30.3364 15.978L29.7061 13.9076L26.7324 23.6752C26.6192 24.0485 26.275 24.3035 25.8846 24.3035Z" fill="#D68629"/>
<path d="M58.691 7.46107C58.4503 7.03415 57.9097 6.88352 57.4833 7.12424C57.0573 7.36451 56.9062 7.9051 57.1469 8.33156C58.2165 10.2287 58.7844 12.3832 58.7881 14.5622C58.7992 20.3715 55.4609 26.8341 48.8671 33.7703C43.4986 39.4174 37.4745 43.7301 35.1338 45.3218C34.7424 45.5884 34.2365 45.5884 33.8447 45.3218C31.7696 43.9107 26.7255 40.3096 21.8403 35.5242H30.1104V39.1161C30.1104 40.2564 31.0382 41.1842 32.1785 41.1842H34.1094C35.2502 41.1842 36.178 40.2564 36.178 39.1161V39.0413C36.2746 39.0551 36.373 39.0648 36.4732 39.0648H38.4041C39.5444 39.0648 40.4722 38.137 40.4722 36.9967V26.8808C40.4722 25.7404 39.5444 24.8126 38.4041 24.8126H36.4732C36.373 24.8126 36.2746 24.8223 36.178 24.8367V24.7614C36.178 23.621 35.2502 22.6933 34.1094 22.6933H32.1785C31.0382 22.6933 30.1104 23.621 30.1104 24.7614V28.266H27.316C26.8262 28.266 26.4293 28.6629 26.4293 29.1522C26.4293 29.6419 26.8262 30.0388 27.316 30.0388H30.1104V33.7518H10.3622V30.0388H23.3068C23.7966 30.0388 24.1935 29.6419 24.1935 29.1522C24.1935 28.6629 23.7966 28.266 23.3068 28.266H15.4979C11.9683 23.3835 10.1825 18.7747 10.1904 14.5627C10.2033 7.50635 15.9516 1.77286 23.0079 1.77286H23.0259C26.9246 1.77794 30.5628 3.52909 33.0074 6.57672C33.3697 7.0286 33.9098 7.28735 34.4892 7.28735C35.0686 7.28735 35.6087 7.02814 35.971 6.57672C38.4157 3.52909 42.0538 1.7784 45.9525 1.77286H45.9705C49.2469 1.77286 52.3694 3.02038 54.766 5.28716C55.1213 5.62353 55.6827 5.60782 56.019 5.25251C56.3554 4.89673 56.3397 4.33581 55.9839 3.99945C53.257 1.4194 49.702 0 45.9705 0C45.9641 0 45.9567 0 45.9497 0C41.5118 0.00600653 37.3705 1.9988 34.5881 5.46782C34.5377 5.5302 34.4402 5.5302 34.3903 5.46782C31.6079 1.99926 27.4666 0.00646866 23.0287 0C23.0213 0 23.0153 0 23.0079 0C14.9762 0 8.43229 6.52728 8.4175 14.5594C8.40965 18.8458 10.0624 23.4505 13.3327 28.266H10.3622V24.7609C10.3622 23.6206 9.43446 22.6928 8.29414 22.6928H6.3628C5.22247 22.6928 4.29469 23.6206 4.29469 24.7609V24.8362C4.19812 24.8223 4.09971 24.8126 3.99945 24.8126H2.06811C0.927783 24.8126 0 25.7404 0 26.8808V36.9963C0 38.1366 0.927783 39.0644 2.06811 39.0644H3.99945C4.09971 39.0644 4.19812 39.0547 4.29469 39.0408V39.1161C4.29469 40.2564 5.22247 41.1842 6.3628 41.1842H8.29414C9.43446 41.1842 10.3622 40.2564 10.3622 39.1161V35.5242H19.3393C24.6962 41.0382 30.5521 45.2266 32.8476 46.7879C33.3461 47.127 33.9177 47.2966 34.4888 47.2966C35.0603 47.2966 35.6318 47.127 36.1304 46.7879C38.5187 45.1638 44.6653 40.7628 50.1516 34.9915C57.0702 27.7138 60.5725 20.8391 60.5609 14.559C60.5563 12.0764 59.9094 9.62205 58.691 7.46107ZM36.4732 26.5855H38.4046C38.5672 26.5855 38.6998 26.7181 38.6998 26.8808V36.9963C38.6998 37.1594 38.5672 37.292 38.4046 37.292H36.4732C36.3106 37.292 36.178 37.1594 36.178 36.9963V26.8808C36.178 26.7181 36.3106 26.5855 36.4732 26.5855ZM31.8833 24.7609C31.8833 24.5983 32.0154 24.4657 32.1785 24.4657H34.1094C34.2725 24.4657 34.4051 24.5983 34.4051 24.7609V39.1161C34.4051 39.2788 34.2725 39.4114 34.1094 39.4114H32.1785C32.0154 39.4114 31.8833 39.2788 31.8833 39.1161V24.7609ZM8.58938 39.1161C8.58938 39.2792 8.45678 39.4118 8.29414 39.4118H6.3628C6.20016 39.4118 6.06755 39.2792 6.06755 39.1161V32.1074C6.06755 31.6181 5.67066 31.2212 5.18089 31.2212C4.69159 31.2212 4.29469 31.6181 4.29469 32.1074V36.9963C4.29469 37.1594 4.16209 37.292 3.99898 37.292H2.06811C1.90547 37.292 1.77286 37.1594 1.77286 36.9963V26.8808C1.77286 26.7181 1.90547 26.5855 2.06811 26.5855H3.99945C4.16209 26.5855 4.29469 26.7181 4.29469 26.8808V27.9698C4.29469 28.4596 4.69159 28.856 5.18135 28.856C5.67066 28.856 6.06755 28.4596 6.06755 27.9698V24.7609C6.06755 24.5983 6.20016 24.4657 6.36326 24.4657H8.29414C8.45678 24.4657 8.58938 24.5983 8.58938 24.7609V39.1161Z" fill="#D68629"/>
</svg>
