<svg width="58" height="44" viewBox="0 0 58 44" fill="none" xmlns="http://www.w3.org/2000/svg">
<path d="M19.6587 21.6225C24.4092 21.6225 28.2833 18.7052 28.2833 15.1313C28.2833 11.557 24.4207 8.63977 19.6587 8.63977C14.8968 8.63977 11.0342 11.557 11.0342 15.1313C11.0342 18.7052 14.9083 21.6225 19.6587 21.6225ZM19.6587 10.9455C23.1175 10.9455 25.9772 12.8597 25.9772 15.1309C25.9772 17.4025 23.083 19.3163 19.6587 19.3163C16.2341 19.3163 13.3399 17.4025 13.3399 15.1309C13.3399 12.8597 16.2341 10.934 19.6587 10.934V10.9455Z" fill="#D68629"/>
<path d="M56.2206 27.1226H39.2022V15.1195C39.2022 7.23309 30.4279 0.811035 19.6013 0.811035C8.77424 0.811035 0 7.23309 0 15.1195V29.3017C0 36.5655 7.43694 42.5611 17.0184 43.472H17.2146C18.0099 43.5415 18.8171 43.5991 19.6358 43.5991H56.2206C56.8572 43.5991 57.3737 43.0826 57.3737 42.446V28.2753C57.3737 27.6391 56.8572 27.1226 56.2206 27.1226ZM19.6589 3.12827C29.1708 3.12827 36.954 8.51281 36.954 15.1314C36.954 21.7496 29.2173 27.1342 19.6589 27.1342C10.1004 27.1342 2.3637 21.7496 2.3637 15.131C2.3637 8.51281 10.158 3.12827 19.6589 3.12827ZM36.954 21.8533V27.1226H30.2663C32.8768 25.9396 35.1541 24.1294 36.896 21.8533H36.954ZM55.0675 41.2929H52.7614V35.4585C52.7614 34.8224 52.2449 34.3055 51.6087 34.3055C50.9722 34.3055 50.4557 34.822 50.4557 35.4585V41.3045H45.8434V38.1335C45.8434 37.497 45.3269 36.9805 44.6903 36.9805C44.0538 36.9805 43.5373 37.497 43.5373 38.1335V41.3045H38.9254V38.1335C38.9254 37.497 38.4089 36.9805 37.7724 36.9805C37.1358 36.9805 36.6193 37.497 36.6193 38.1335V41.3045H32.007V35.4585C32.007 34.8224 31.4905 34.3055 30.854 34.3055C30.2178 34.3055 29.7009 34.822 29.7009 35.4585V41.3045H25.2852V38.1335C25.2852 37.497 24.7683 36.9805 24.1321 36.9805C23.4956 36.9805 22.9791 37.497 22.9791 38.1335V41.3045H19.658C19.2201 41.3045 18.7937 41.3045 18.3668 41.3045V38.1335C18.3668 37.497 17.8503 36.9805 17.2137 36.9805C16.5772 36.9805 16.0607 37.497 16.0607 38.1335V41.0277C8.27872 39.8746 2.42127 35.0551 2.42127 29.2902V21.8533C5.71886 26.3615 12.2104 29.4284 19.7164 29.4284H55.0675V41.2929Z" fill="#D68629"/>
</svg>
