<svg width="58" height="58" viewBox="0 0 58 58" fill="none" xmlns="http://www.w3.org/2000/svg">
<path d="M29 0C12.9717 0 0 12.9704 0 29C0 45.0283 12.9704 58 29 58C45.0283 58 58 45.0296 58 29C58 12.9717 45.0296 0 29 0ZM50.4444 30.6992H54.5438C54.1629 36.4817 51.8546 41.7454 48.2557 45.8525L46.4978 44.0947C45.8343 43.431 44.7583 43.4312 44.0947 44.0947C43.4311 44.7583 43.4311 45.8342 44.0947 46.4978L45.8526 48.2556C41.7455 51.8546 36.4817 54.1629 30.6992 54.5438V51.5772C30.6992 50.6388 29.9384 49.878 29 49.878C28.0616 49.878 27.3008 50.6388 27.3008 51.5772V54.5438C21.5183 54.1629 16.2546 51.8546 12.1475 48.2557L13.9053 46.4978C14.5689 45.8343 14.5689 44.7583 13.9053 44.0947C13.2418 43.4312 12.1658 43.4312 11.5022 44.0947L9.74445 45.8525C6.14539 41.7455 3.83706 36.4817 3.45621 30.6992H6.42282C7.36124 30.6992 8.12204 29.9384 8.12204 29C8.12204 28.0616 7.36124 27.3008 6.42282 27.3008H3.45621C3.83706 21.5183 6.14539 16.2546 9.74434 12.1475L11.5021 13.9053C12.1657 14.5689 13.2416 14.5689 13.9052 13.9053C14.5686 13.2418 14.5686 12.1658 13.9052 11.5022L12.1474 9.74445C16.2545 6.14539 21.5183 3.83706 27.3008 3.45621V6.42282C27.3008 7.36124 28.0616 8.12204 29 8.12204C29.9384 8.12204 30.6992 7.36124 30.6992 6.42282V3.45621C36.4817 3.83706 41.7454 6.14539 45.8525 9.74434L44.0947 11.5022C43.4311 12.1658 43.4311 13.2417 44.0947 13.9053C44.7581 14.5689 45.834 14.569 46.4978 13.9053L48.2556 12.1474C51.8546 16.2545 54.1629 21.5183 54.5438 27.3008H50.4444C49.5059 27.3008 48.7451 28.0616 48.7451 29C48.7451 29.9384 49.5059 30.6992 50.4444 30.6992Z" fill="#D68629"/>
<path d="M39.7222 27.3008H30.6992V13.2197C30.6992 12.2813 29.9384 11.5205 29 11.5205C28.0616 11.5205 27.3008 12.2813 27.3008 13.2197V29C27.3008 29.9385 28.0616 30.6992 29 30.6992H39.7222C40.6606 30.6992 41.4214 29.9385 41.4214 29C41.4214 28.0616 40.6607 27.3008 39.7222 27.3008Z" fill="#D68629"/>
</svg>
