<svg width="60" height="61" viewBox="0 0 60 61" fill="none" xmlns="http://www.w3.org/2000/svg">
<path d="M16.8035 42.2119H8.89599C7.2583 42.2119 5.93068 43.5395 5.93068 45.1772V53.0847C5.93068 54.7224 7.2583 56.05 8.89599 56.05H16.8035C18.4412 56.05 19.7688 54.7224 19.7688 53.0847V45.1772C19.7688 43.5395 18.4412 42.2119 16.8035 42.2119ZM17.7919 53.0847C17.7919 53.6306 17.3494 54.0732 16.8035 54.0732H8.89599C8.3501 54.0732 7.90756 53.6306 7.90756 53.0847V45.1772C7.90756 44.6313 8.3501 44.1888 8.89599 44.1888H16.8035C17.3494 44.1888 17.7919 44.6313 17.7919 45.1772V53.0847Z" fill="#D68629"/>
<path d="M20.1839 13.7351L19.7688 14.0317V13.5473C19.7688 11.9096 18.4412 10.582 16.8035 10.582H8.89599C7.2583 10.582 5.93068 11.9096 5.93068 13.5473V21.4548C5.93068 23.0925 7.2583 24.4202 8.89599 24.4202H16.8035C18.4412 24.4202 19.7688 23.0925 19.7688 21.4548V16.4533L21.3305 15.3364C21.652 15.146 21.8387 14.7906 21.8129 14.4179C21.7872 14.0451 21.5535 13.7188 21.2089 13.5743C20.8643 13.4299 20.4677 13.4921 20.1839 13.7351ZM17.7919 21.4548C17.7919 22.0007 17.3494 22.4433 16.8035 22.4433H8.89599C8.3501 22.4433 7.90756 22.0007 7.90756 21.4548V13.5473C7.90756 13.0014 8.3501 12.5589 8.89599 12.5589H16.8035C17.3494 12.5589 17.7919 13.0014 17.7919 13.5473V15.4353L14.2039 18.0052L13.7295 17.0168C13.4625 16.5732 12.8985 16.4107 12.4365 16.6443C11.9745 16.8779 11.771 17.4284 11.97 17.9064L12.9585 19.8832C13.0891 20.139 13.3246 20.3253 13.6036 20.3936C13.8825 20.4619 14.1774 20.4055 14.4115 20.2391L17.7919 17.8668V21.4548Z" fill="#D68629"/>
<path d="M20.1839 29.5506L19.7688 29.8471V29.3628C19.7688 27.7251 18.4412 26.3975 16.8035 26.3975H8.89599C7.2583 26.3975 5.93068 27.7251 5.93068 29.3628V37.2703C5.93068 38.908 7.2583 40.2356 8.89599 40.2356H16.8035C18.4412 40.2356 19.7688 38.908 19.7688 37.2703V32.2688L21.3305 31.1518C21.652 30.9614 21.8387 30.6061 21.8129 30.2333C21.7872 29.8606 21.5535 29.5342 21.2089 29.3898C20.8643 29.2453 20.4677 29.3076 20.1839 29.5506ZM17.7919 37.2703C17.7919 37.8162 17.3494 38.2587 16.8035 38.2587H8.89599C8.3501 38.2587 7.90756 37.8162 7.90756 37.2703V29.3628C7.90756 28.8169 8.3501 28.3743 8.89599 28.3743H16.8035C17.3494 28.3743 17.7919 28.8169 17.7919 29.3628V31.2507L14.2039 33.8206L13.7295 32.8322C13.587 32.4901 13.2653 32.2565 12.8959 32.2269C12.5266 32.1973 12.1718 32.3767 11.9767 32.6917C11.7816 33.0067 11.779 33.4043 11.97 33.7218L12.9585 35.6987C13.0891 35.9544 13.3246 36.1407 13.6036 36.209C13.8825 36.2773 14.1774 36.2209 14.4115 36.0545L17.7919 33.6822V37.2703Z" fill="#D68629"/>
<path d="M25.6996 14.5355H42.503C43.0489 14.5355 43.4914 14.0929 43.4914 13.547C43.4914 13.0011 43.0489 12.5586 42.503 12.5586H25.6996C25.1537 12.5586 24.7111 13.0011 24.7111 13.547C24.7111 14.0929 25.1537 14.5355 25.6996 14.5355Z" fill="#D68629"/>
<path d="M25.6996 20.4671H33.6071C34.153 20.4671 34.5955 20.0246 34.5955 19.4787C34.5955 18.9328 34.153 18.4902 33.6071 18.4902H25.6996C25.1537 18.4902 24.7111 18.9328 24.7111 19.4787C24.7111 20.0246 25.1537 20.4671 25.6996 20.4671Z" fill="#D68629"/>
<path d="M25.6996 30.3509H42.503C43.0489 30.3509 43.4914 29.9084 43.4914 29.3625C43.4914 28.8166 43.0489 28.374 42.503 28.374H25.6996C25.1537 28.374 24.7111 28.8166 24.7111 29.3625C24.7111 29.9084 25.1537 30.3509 25.6996 30.3509Z" fill="#D68629"/>
<path d="M25.6996 36.2816H33.6071C34.153 36.2816 34.5955 35.839 34.5955 35.2931C34.5955 34.7472 34.153 34.3047 33.6071 34.3047H25.6996C25.1537 34.3047 24.7111 34.7472 24.7111 35.2931C24.7111 35.839 25.1537 36.2816 25.6996 36.2816Z" fill="#D68629"/>
<path d="M57.3293 48.1422H55.1746C54.6252 46.6059 52.9379 45.8021 51.3987 46.3433V45.1769C51.3952 43.9233 50.6038 42.8074 49.4218 42.3895V7.61632C49.4218 5.43273 47.6517 3.66258 45.4681 3.66258H36.5722V2.67414C36.5722 1.58234 35.6871 0.697266 34.5953 0.697266H14.8266C13.7348 0.697266 12.8497 1.58234 12.8497 2.67414V3.66258H3.95375C1.77015 3.66258 0 5.43273 0 7.61632V56.0497C0 58.2333 1.77015 60.0035 3.95375 60.0035C49.3625 60.0035 45.9623 60.1517 47.0694 59.6575C47.9865 60.1327 49.0847 60.0964 49.9684 59.5617C50.8522 59.027 51.394 58.071 51.3987 57.0382V55.8718C52.9379 56.413 54.6252 55.6092 55.1746 54.0729H57.3293C58.4211 54.0729 59.3062 53.1878 59.3062 52.096V50.1191C59.3062 49.0273 58.4211 48.1422 57.3293 48.1422ZM14.8266 2.67414H34.5953V6.62789H14.8266V2.67414ZM1.97687 56.0497V7.61632C1.97687 6.52453 2.86195 5.63945 3.95375 5.63945H12.8497V6.62789C12.8497 7.71968 13.7348 8.60476 14.8266 8.60476H34.5953C35.6871 8.60476 36.5722 7.71968 36.5722 6.62789V5.63945H45.4681C46.5599 5.63945 47.445 6.52453 47.445 7.61632V42.3895C46.2631 42.8074 45.4716 43.9233 45.4681 45.1769V48.1422H37.5606V45.1769C37.5606 43.5392 36.233 42.2116 34.5953 42.2116C32.9576 42.2116 31.63 43.5392 31.63 45.1769V46.3433C30.0908 45.8021 28.4035 46.6059 27.8542 48.1422H25.6994C24.6076 48.1422 23.7225 49.0273 23.7225 50.1191V52.096C23.7225 53.1878 24.6076 54.0729 25.6994 54.0729H27.8542C28.4035 55.6092 30.0908 56.413 31.63 55.8718C31.5568 56.5949 31.6171 57.3253 31.8079 58.0266H3.95375C2.86195 58.0266 1.97687 57.1415 1.97687 56.0497ZM25.6994 52.096V50.1191H27.6762V52.096H25.6994ZM29.6531 49.1307C29.6531 48.5848 30.0956 48.1422 30.6415 48.1422C31.1874 48.1422 31.63 48.5848 31.63 49.1307V53.0844C31.63 53.6303 31.1874 54.0729 30.6415 54.0729C30.0956 54.0729 29.6531 53.6303 29.6531 53.0844V49.1307ZM33.6069 57.0382V45.1769C33.6069 44.631 34.0494 44.1885 34.5953 44.1885C35.1412 44.1885 35.5837 44.631 35.5837 45.1769V57.0382C35.5837 57.5841 35.1412 58.0266 34.5953 58.0266C34.0494 58.0266 33.6069 57.5841 33.6069 57.0382ZM37.5606 50.1191H45.4681V52.096H37.5606V50.1191ZM37.3827 58.0266C37.6199 57.3545 37.5606 57.2754 37.5606 54.0729H45.4681C45.4681 57.0382 45.3989 57.2952 45.646 58.0266C45.2408 58.0266 47.0101 58.0266 37.3827 58.0266ZM49.4218 57.0382C49.4218 57.5841 48.9793 58.0266 48.4334 58.0266C47.8875 58.0266 47.445 57.5841 47.445 57.0382V45.1769C47.445 44.631 47.8875 44.1885 48.4334 44.1885C48.9793 44.1885 49.4218 44.631 49.4218 45.1769V57.0382ZM52.3872 54.0729C51.8413 54.0729 51.3987 53.6303 51.3987 53.0844V49.1307C51.3987 48.5848 51.8413 48.1422 52.3872 48.1422C52.9331 48.1422 53.3756 48.5848 53.3756 49.1307V53.0844C53.3756 53.6303 52.9331 54.0729 52.3872 54.0729ZM57.3293 52.096H55.3525V50.1191H57.3293V52.096Z" fill="#D68629"/>
</svg>
