<svg width="80" height="60" viewBox="0 0 80 60" fill="none" xmlns="http://www.w3.org/2000/svg">
<path d="M78.3373 13.8595H74.3541V11.8679C74.3541 9.30137 72.2735 7.22079 69.7069 7.22079C69.0165 7.2246 68.3359 7.38393 67.7153 7.68683V5.89304C67.7153 2.95987 65.3375 0.582031 62.4043 0.582031C59.4711 0.582031 57.0933 2.95987 57.0933 5.89304V13.8595H51.7823V12.5318C51.7919 10.3415 50.0242 8.558 47.8339 8.54821C46.8389 8.54373 45.8786 8.9135 45.1435 9.58418C43.6425 8.20332 41.3336 8.20332 39.8325 9.58418C38.3315 8.20332 36.0226 8.20332 34.5215 9.58418C32.9033 8.10806 30.3949 8.22324 28.9188 9.84144C28.2482 10.5765 27.8785 11.5368 27.8828 12.5318V13.8595H22.5718V5.89304C22.5718 2.95987 20.1939 0.582031 17.2608 0.582031C14.3276 0.582031 11.9498 2.95987 11.9498 5.89304V7.68683C11.3292 7.38393 10.6486 7.2246 9.95813 7.22079C7.39159 7.22079 5.311 9.30137 5.311 11.8679V13.8595H1.32775C0.594501 13.8595 0 14.454 0 15.1873V23.1538C0 23.8871 0.594501 24.4816 1.32775 24.4816H5.311V26.4732C5.311 29.0397 7.39159 31.1203 9.95813 31.1203C10.6486 31.1165 11.3292 30.9572 11.9498 30.6543V32.4481C11.9498 35.3812 14.3276 37.7591 17.2608 37.7591C20.1939 37.7591 22.5718 35.3812 22.5718 32.4481V24.4816H25.2273V28.9202C25.223 30.6817 25.9233 32.3717 27.1724 33.6138L30.5383 36.981V59.0031H33.1938V36.4313C33.1938 36.0791 33.0537 35.7415 32.8047 35.4926L29.0499 31.7364C28.3048 30.9882 27.8854 29.9761 27.8828 28.9202V20.4983H35.6594C36.1621 20.4915 36.6385 20.7224 36.9447 21.121C36.954 21.1343 36.9646 21.1476 36.9739 21.1622C37.0308 21.2528 37.0755 21.3505 37.1067 21.453C37.1317 21.5348 37.1487 21.6188 37.1571 21.7039C37.1664 21.7872 37.1664 21.8715 37.1571 21.9548C37.1541 21.9995 37.1483 22.0438 37.1399 22.0876C37.1098 22.2275 37.0582 22.3618 36.9872 22.4859C36.7556 22.897 36.3211 23.152 35.8493 23.1538H31.866C31.1328 23.1538 30.5383 23.7483 30.5383 24.4816V27.1371C30.5381 27.7088 30.9041 28.2163 31.4465 28.3971L34.3675 29.373C36.7389 30.1603 38.5048 33.7493 38.5048 36.4313H41.1603C41.1603 32.7787 38.8872 28.0771 35.2133 26.8529L33.1938 26.1797V25.8093H35.8493C36.9668 25.7985 38.0276 25.3164 38.7703 24.4816H50.4545V29.3504C50.4529 30.212 50.1736 31.0501 49.6579 31.7404L46.7368 35.6347C46.5644 35.8645 46.4713 36.144 46.4713 36.4313V59.0031H49.1268V36.8735L51.7823 33.3337C52.6417 32.1833 53.1074 30.7864 53.11 29.3504V24.4816H57.0933V32.4481C57.0933 35.3812 59.4711 37.7591 62.4043 37.7591C65.3375 37.7591 67.7153 35.3812 67.7153 32.4481V30.6543C68.3359 30.9572 69.0165 31.1165 69.7069 31.1203C72.2735 31.1203 74.3541 29.0397 74.3541 26.4732V24.4816H78.3373C79.0706 24.4816 79.6651 23.8871 79.6651 23.1538V15.1873C79.6651 14.454 79.0706 13.8595 78.3373 13.8595ZM5.311 21.826H2.6555V16.515H5.311V21.826ZM11.9498 26.4732C11.9498 27.5731 11.058 28.4648 9.95813 28.4648C8.85826 28.4648 7.96651 27.5731 7.96651 26.4732V11.8679C7.96651 10.768 8.85826 9.87629 9.95813 9.87629C11.058 9.87629 11.9498 10.768 11.9498 11.8679V26.4732ZM19.9163 32.4481C19.9163 33.9147 18.7274 35.1036 17.2608 35.1036C15.7941 35.1036 14.6053 33.9147 14.6053 32.4481V5.89304C14.6053 4.42637 15.7941 3.23753 17.2608 3.23753C18.7274 3.23753 19.9163 4.42637 19.9163 5.89304V32.4481ZM26.555 17.8428C25.8218 17.8428 25.2273 18.4373 25.2273 19.1705V21.826H22.5718V16.515H27.8828C27.8843 16.766 27.9095 17.0164 27.9585 17.2626C27.9731 17.3409 27.9983 17.4126 28.0169 17.4883C28.0474 17.6065 28.07 17.7286 28.1098 17.8428H26.555ZM33.1938 16.515C33.1938 17.2483 32.5993 17.8428 31.866 17.8428C31.1328 17.8428 30.5383 17.2483 30.5383 16.515V12.5318C30.5383 11.7985 31.1328 11.204 31.866 11.204C32.5993 11.204 33.1938 11.7985 33.1938 12.5318V16.515ZM38.5048 16.515C38.5048 17.2483 37.9103 17.8428 37.177 17.8428C36.4438 17.8428 35.8493 17.2483 35.8493 16.515V12.5318C35.8493 11.7985 36.4438 11.204 37.177 11.204C37.9103 11.204 38.5048 11.7985 38.5048 12.5318V16.515ZM46.4713 12.5318C46.4713 11.7985 47.0658 11.204 47.799 11.204C48.5323 11.204 49.1268 11.7985 49.1268 12.5318V16.515C49.1268 17.2483 48.5323 17.8428 47.799 17.8428C47.0658 17.8428 46.4713 17.2483 46.4713 16.515V12.5318ZM41.1603 12.5318C41.1603 11.7985 41.7548 11.204 42.488 11.204C43.2213 11.204 43.8158 11.7985 43.8158 12.5318V16.515C43.8158 17.2483 43.2213 17.8428 42.488 17.8428C41.7548 17.8428 41.1603 17.2483 41.1603 16.515V12.5318ZM57.0933 21.826H39.8325C39.8325 21.8128 39.8325 21.8022 39.8325 21.7889C39.8314 21.5248 39.8038 21.2614 39.7502 21.0028C39.7422 20.967 39.725 20.9338 39.717 20.8966C39.6931 20.7997 39.6586 20.7094 39.6281 20.6151C39.572 20.445 39.5041 20.2792 39.4249 20.1186C39.3864 20.0389 39.3678 19.9486 39.324 19.8716C39.3391 19.8613 39.3537 19.8502 39.3678 19.8384C39.4289 19.7986 39.482 19.7508 39.5404 19.7056C39.64 19.6313 39.7449 19.5622 39.8378 19.4786C39.9149 19.5476 40.0038 19.6021 40.0861 19.6645C40.1685 19.7269 40.2495 19.7972 40.3384 19.853C40.4637 19.9304 40.5932 20.0009 40.7261 20.0641C40.8164 20.1079 40.9014 20.1597 40.9917 20.1969C41.1467 20.2563 41.3055 20.3056 41.467 20.3443C41.5506 20.3669 41.629 20.3987 41.7153 20.416C42.226 20.5204 42.7526 20.5204 43.2634 20.416C43.3497 20.3987 43.4281 20.3669 43.5117 20.3443C43.6732 20.3056 43.8321 20.2563 43.9871 20.1969C44.0813 20.1584 44.1663 20.1066 44.2526 20.0641C44.3861 20.0009 44.5158 19.9304 44.6417 19.853C44.7293 19.7946 44.8089 19.7282 44.8926 19.6645C44.9762 19.6007 45.0639 19.5476 45.1409 19.4786C45.2179 19.5476 45.3069 19.6021 45.3892 19.6645C45.4715 19.7269 45.5525 19.7972 45.6414 19.853C45.7668 19.9304 45.8962 20.0009 46.0291 20.0641C46.1194 20.1079 46.2044 20.1597 46.2947 20.1969C46.4497 20.2563 46.6085 20.3056 46.77 20.3443C46.8537 20.3669 46.932 20.3987 47.0183 20.416C49.1684 20.853 51.2656 19.4643 51.7026 17.3144C51.7561 17.0513 51.7828 16.7836 51.7823 16.515H57.0933V21.826ZM65.0598 32.4481C65.0598 33.9147 63.871 35.1036 62.4043 35.1036C60.9376 35.1036 59.7488 33.9147 59.7488 32.4481V5.89304C59.7488 4.42637 60.9376 3.23753 62.4043 3.23753C63.871 3.23753 65.0598 4.42637 65.0598 5.89304V32.4481ZM71.6986 26.4732C71.6986 27.5731 70.8068 28.4648 69.7069 28.4648C68.6071 28.4648 67.7153 27.5731 67.7153 26.4732V11.8679C67.7153 10.768 68.6071 9.87629 69.7069 9.87629C70.8068 9.87629 71.6986 10.768 71.6986 11.8679V26.4732ZM77.0096 21.826H74.3541V16.515H77.0096V21.826Z" fill="#D68629"/>
</svg>
