<svg width="57" height="42" viewBox="0 0 57 42" fill="none" xmlns="http://www.w3.org/2000/svg">
<path d="M55.9388 9.5749H53.0944V8.15273C53.0944 6.32002 51.6087 4.83432 49.776 4.83432C49.283 4.83705 48.797 4.95082 48.3539 5.16711V3.88621C48.3539 1.79171 46.6559 0.09375 44.5614 0.09375C42.4669 0.09375 40.7689 1.79171 40.7689 3.88621V9.5749H36.9765V8.62678C36.9834 7.06275 35.7211 5.7892 34.157 5.7822C33.4465 5.779 32.7608 6.04305 32.2359 6.52197C31.1641 5.53593 29.5153 5.53593 28.4434 6.52197C27.3716 5.53593 25.7228 5.53593 24.651 6.52197C23.4955 5.4679 21.7042 5.55015 20.6502 6.70567C20.1714 7.23057 19.9073 7.91629 19.9104 8.62678V9.5749H16.118V3.88621C16.118 1.79171 14.42 0.09375 12.3255 0.09375C10.231 0.09375 8.53303 1.79171 8.53303 3.88621V5.16711C8.08991 4.95082 7.60388 4.83705 7.11086 4.83432C5.27816 4.83432 3.79246 6.32002 3.79246 8.15273V9.5749H0.948115C0.424518 9.5749 0 9.99942 0 10.523V16.2117C0 16.7353 0.424518 17.1598 0.948115 17.1598H3.79246V18.582C3.79246 20.4147 5.27816 21.9004 7.11086 21.9004C7.60388 21.8977 8.08991 21.7839 8.53303 21.5676V22.8485C8.53303 24.943 10.231 26.641 12.3255 26.641C14.42 26.641 16.118 24.943 16.118 22.8485V17.1598H18.0142V20.3294C18.0111 21.5872 18.5112 22.794 19.4032 23.681L21.8066 26.0854V41.8108H23.7029V25.6929C23.7029 25.4414 23.6028 25.2003 23.4251 25.0225L20.7438 22.3403C20.2118 21.8061 19.9123 21.0834 19.9104 20.3294V14.3155H25.4635C25.8225 14.3106 26.1626 14.4755 26.3813 14.7601C26.3879 14.7696 26.3955 14.7791 26.4022 14.7895C26.4428 14.8542 26.4747 14.924 26.497 14.9972C26.5149 15.0556 26.5269 15.1156 26.533 15.1764C26.5396 15.2359 26.5396 15.2961 26.533 15.3556C26.5309 15.3874 26.5267 15.4191 26.5207 15.4504C26.4992 15.5503 26.4624 15.6462 26.4116 15.7348C26.2463 16.0284 25.936 16.2104 25.5991 16.2117H22.7548C22.2312 16.2117 21.8066 16.6362 21.8066 17.1598V19.056C21.8065 19.4643 22.0678 19.8267 22.4552 19.9558L24.541 20.6527C26.2343 21.2149 27.4953 23.7777 27.4953 25.6929H29.3916C29.3916 23.0846 27.7684 19.7273 25.145 18.8532L23.7029 18.3725V18.1079H25.5991C26.3971 18.1002 27.1546 17.7559 27.685 17.1598H36.0284V20.6366C36.0272 21.2518 35.8277 21.8503 35.4595 22.3432L33.3736 25.124C33.2505 25.2881 33.184 25.4877 33.184 25.6929V41.8108H35.0802V26.0086L36.9765 23.4809C37.5901 22.6595 37.9227 21.6619 37.9246 20.6366V17.1598H40.7689V22.8485C40.7689 24.943 42.4669 26.641 44.5614 26.641C46.6559 26.641 48.3539 24.943 48.3539 22.8485V21.5676C48.797 21.7839 49.283 21.8977 49.776 21.9004C51.6087 21.9004 53.0944 20.4147 53.0944 18.582V17.1598H55.9388C56.4624 17.1598 56.8869 16.7353 56.8869 16.2117V10.523C56.8869 9.99942 56.4624 9.5749 55.9388 9.5749ZM3.79246 15.2636H1.89623V11.4711H3.79246V15.2636ZM8.53303 18.582C8.53303 19.3674 7.89626 20.0042 7.11086 20.0042C6.32547 20.0042 5.68869 19.3674 5.68869 18.582V8.15273C5.68869 7.36733 6.32547 6.73055 7.11086 6.73055C7.89626 6.73055 8.53303 7.36733 8.53303 8.15273V18.582ZM14.2217 22.8485C14.2217 23.8958 13.3728 24.7447 12.3255 24.7447C11.2782 24.7447 10.4293 23.8958 10.4293 22.8485V3.88621C10.4293 2.8389 11.2782 1.98998 12.3255 1.98998C13.3728 1.98998 14.2217 2.8389 14.2217 3.88621V22.8485ZM18.9623 12.4192C18.4387 12.4192 18.0142 12.8438 18.0142 13.3674V15.2636H16.118V11.4711H19.9104C19.9115 11.6503 19.9295 11.8292 19.9645 12.0049C19.9749 12.0609 19.9929 12.1121 20.0062 12.1661C20.028 12.2505 20.0441 12.3377 20.0725 12.4192H18.9623ZM23.7029 11.4711C23.7029 11.9947 23.2784 12.4192 22.7548 12.4192C22.2312 12.4192 21.8066 11.9947 21.8066 11.4711V8.62678C21.8066 8.10319 22.2312 7.67867 22.7548 7.67867C23.2784 7.67867 23.7029 8.10319 23.7029 8.62678V11.4711ZM27.4953 11.4711C27.4953 11.9947 27.0708 12.4192 26.5472 12.4192C26.0236 12.4192 25.5991 11.9947 25.5991 11.4711V8.62678C25.5991 8.10319 26.0236 7.67867 26.5472 7.67867C27.0708 7.67867 27.4953 8.10319 27.4953 8.62678V11.4711ZM33.184 8.62678C33.184 8.10319 33.6085 7.67867 34.1321 7.67867C34.6557 7.67867 35.0802 8.10319 35.0802 8.62678V11.4711C35.0802 11.9947 34.6557 12.4192 34.1321 12.4192C33.6085 12.4192 33.184 11.9947 33.184 11.4711V8.62678ZM29.3916 8.62678C29.3916 8.10319 29.8161 7.67867 30.3397 7.67867C30.8633 7.67867 31.2878 8.10319 31.2878 8.62678V11.4711C31.2878 11.9947 30.8633 12.4192 30.3397 12.4192C29.8161 12.4192 29.3916 11.9947 29.3916 11.4711V8.62678ZM40.7689 15.2636H28.4434C28.4434 15.2541 28.4434 15.2465 28.4434 15.237C28.4426 15.0485 28.4229 14.8604 28.3847 14.6758C28.379 14.6502 28.3666 14.6265 28.361 14.5999C28.3439 14.5307 28.3192 14.4662 28.2974 14.3989C28.2574 14.2774 28.2089 14.159 28.1524 14.0443C28.1249 13.9874 28.1116 13.923 28.0803 13.868C28.0911 13.8606 28.1015 13.8527 28.1116 13.8443C28.1552 13.8158 28.1931 13.7817 28.2349 13.7494C28.306 13.6964 28.3809 13.6471 28.4472 13.5873C28.5022 13.6366 28.5658 13.6755 28.6245 13.7201C28.6833 13.7646 28.7412 13.8149 28.8047 13.8547C28.8942 13.9099 28.9866 13.9603 29.0815 14.0054C29.146 14.0367 29.2067 14.0737 29.2711 14.1003C29.3818 14.1427 29.4953 14.1779 29.6106 14.2055C29.6703 14.2216 29.7262 14.2444 29.7879 14.2567C30.1525 14.3312 30.5286 14.3312 30.8934 14.2567C30.955 14.2444 31.0109 14.2216 31.0707 14.2055C31.186 14.1779 31.2994 14.1427 31.4101 14.1003C31.4774 14.0728 31.5381 14.0358 31.5997 14.0054C31.695 13.9603 31.7877 13.9099 31.8775 13.8547C31.9401 13.813 31.997 13.7656 32.0567 13.7201C32.1164 13.6745 32.179 13.6366 32.234 13.5873C32.289 13.6366 32.3525 13.6755 32.4113 13.7201C32.4701 13.7646 32.5279 13.8149 32.5914 13.8547C32.6809 13.9099 32.7734 13.9603 32.8683 14.0054C32.9328 14.0367 32.9934 14.0737 33.0579 14.1003C33.1686 14.1427 33.282 14.1779 33.3973 14.2055C33.4571 14.2216 33.513 14.2444 33.5746 14.2567C35.11 14.5687 36.6075 13.5771 36.9196 12.0419C36.9578 11.854 36.9768 11.6629 36.9765 11.4711H40.7689V15.2636ZM46.4576 22.8485C46.4576 23.8958 45.6087 24.7447 44.5614 24.7447C43.5141 24.7447 42.6652 23.8958 42.6652 22.8485V3.88621C42.6652 2.8389 43.5141 1.98998 44.5614 1.98998C45.6087 1.98998 46.4576 2.8389 46.4576 3.88621V22.8485ZM51.1982 18.582C51.1982 19.3674 50.5614 20.0042 49.776 20.0042C48.9906 20.0042 48.3539 19.3674 48.3539 18.582V8.15273C48.3539 7.36733 48.9906 6.73055 49.776 6.73055C50.5614 6.73055 51.1982 7.36733 51.1982 8.15273V18.582ZM54.9907 15.2636H53.0944V11.4711H54.9907V15.2636Z" fill="#D68629"/>
</svg>
