<svg width="54" height="54" viewBox="0 0 54 54" fill="none" xmlns="http://www.w3.org/2000/svg">
<path d="M15.0378 37.1525H7.96113C6.4955 37.1525 5.30737 38.3407 5.30737 39.8063V46.883C5.30737 48.3486 6.4955 49.5367 7.96113 49.5367H15.0378C16.5035 49.5367 17.6916 48.3486 17.6916 46.883V39.8063C17.6916 38.3407 16.5035 37.1525 15.0378 37.1525ZM15.9224 46.883C15.9224 47.3715 15.5264 47.7676 15.0378 47.7676H7.96113C7.47259 47.7676 7.07655 47.3715 7.07655 46.883V39.8063C7.07655 39.3177 7.47259 38.9217 7.96113 38.9217H15.0378C15.5264 38.9217 15.9224 39.3177 15.9224 39.8063V46.883Z" fill="#D68629"/>
<path d="M18.0631 11.6677L17.6916 11.933V11.4996C17.6916 10.034 16.5035 8.84583 15.0378 8.84583H7.96113C6.4955 8.84583 5.30737 10.034 5.30737 11.4996V18.5763C5.30737 20.0419 6.4955 21.23 7.96113 21.23H15.0378C16.5035 21.23 17.6916 20.0419 17.6916 18.5763V14.1003L19.0892 13.1007C19.3769 12.9303 19.544 12.6122 19.5209 12.2787C19.4979 11.9451 19.2888 11.653 18.9804 11.5237C18.672 11.3945 18.3171 11.4502 18.0631 11.6677ZM15.9224 18.5763C15.9224 19.0648 15.5264 19.4609 15.0378 19.4609H7.96113C7.47259 19.4609 7.07655 19.0648 7.07655 18.5763V11.4996C7.07655 11.011 7.47259 10.615 7.96113 10.615H15.0378C15.5264 10.615 15.9224 11.011 15.9224 11.4996V13.1891L12.7114 15.4891L12.2868 14.6045C12.0479 14.2075 11.5431 14.0621 11.1297 14.2711C10.7162 14.4802 10.5341 14.9729 10.7122 15.4006L11.5968 17.1698C11.7137 17.3987 11.9244 17.5654 12.1741 17.6265C12.4238 17.6877 12.6877 17.6372 12.8971 17.4882L15.9224 15.3652V18.5763Z" fill="#D68629"/>
<path d="M18.0631 25.821L17.6916 26.0864V25.6529C17.6916 24.1873 16.5035 22.9991 15.0378 22.9991H7.96113C6.4955 22.9991 5.30737 24.1873 5.30737 25.6529V32.7296C5.30737 34.1952 6.4955 35.3834 7.96113 35.3834H15.0378C16.5035 35.3834 17.6916 34.1952 17.6916 32.7296V28.2536L19.0892 27.254C19.3769 27.0836 19.544 26.7656 19.5209 26.432C19.4979 26.0984 19.2888 25.8063 18.9804 25.6771C18.672 25.5478 18.3171 25.6035 18.0631 25.821ZM15.9224 32.7296C15.9224 33.2181 15.5264 33.6142 15.0378 33.6142H7.96113C7.47259 33.6142 7.07655 33.2181 7.07655 32.7296V25.6529C7.07655 25.1644 7.47259 24.7683 7.96113 24.7683H15.0378C15.5264 24.7683 15.9224 25.1644 15.9224 25.6529V27.3425L12.7114 29.6424L12.2868 28.7578C12.1593 28.4517 11.8713 28.2426 11.5408 28.2161C11.2103 28.1896 10.8927 28.3502 10.7181 28.6321C10.5435 28.914 10.5412 29.2698 10.7122 29.5539L11.5968 31.3231C11.7137 31.552 11.9244 31.7187 12.1741 31.7798C12.4238 31.841 12.6877 31.7905 12.8971 31.6416L15.9224 29.5185V32.7296Z" fill="#D68629"/>
<path d="M22.9993 12.3841H38.0373C38.5259 12.3841 38.9219 11.9881 38.9219 11.4995C38.9219 11.011 38.5259 10.6149 38.0373 10.6149H22.9993C22.5108 10.6149 22.1147 11.011 22.1147 11.4995C22.1147 11.9881 22.5108 12.3841 22.9993 12.3841Z" fill="#D68629"/>
<path d="M22.9993 17.6917H30.076C30.5646 17.6917 30.9606 17.2956 30.9606 16.8071C30.9606 16.3185 30.5646 15.9225 30.076 15.9225H22.9993C22.5108 15.9225 22.1147 16.3185 22.1147 16.8071C22.1147 17.2956 22.5108 17.6917 22.9993 17.6917Z" fill="#D68629"/>
<path d="M22.9993 26.5375H38.0373C38.5259 26.5375 38.9219 26.1414 38.9219 25.6529C38.9219 25.1644 38.5259 24.7683 38.0373 24.7683H22.9993C22.5108 24.7683 22.1147 25.1644 22.1147 25.6529C22.1147 26.1414 22.5108 26.5375 22.9993 26.5375Z" fill="#D68629"/>
<path d="M22.9993 31.845H30.076C30.5646 31.845 30.9606 31.449 30.9606 30.9605C30.9606 30.4719 30.5646 30.0759 30.076 30.0759H22.9993C22.5108 30.0759 22.1147 30.4719 22.1147 30.9605C22.1147 31.449 22.5108 31.845 22.9993 31.845Z" fill="#D68629"/>
<path d="M51.306 42.4602H49.3776C48.886 41.0853 47.376 40.3658 45.9985 40.8502V39.8064C45.9954 38.6845 45.2871 37.6858 44.2293 37.3119V6.19211C44.2293 4.23793 42.6452 2.65376 40.691 2.65376H32.7297V1.76917C32.7297 0.792086 31.9376 0 30.9605 0H13.2688C12.2917 0 11.4996 0.792086 11.4996 1.76917V2.65376H3.53835C1.58417 2.65376 0 4.23793 0 6.19211V49.5369C0 51.491 1.58417 53.0752 3.53835 53.0752C44.1763 53.0752 41.1333 53.2079 42.124 52.7656C42.9448 53.1908 43.9276 53.1583 44.7185 52.6798C45.5094 52.2013 45.9943 51.3458 45.9985 50.4214V49.3776C47.376 49.862 48.886 49.1426 49.3776 47.7677H51.306C52.2831 47.7677 53.0752 46.9756 53.0752 45.9985V44.2293C53.0752 43.2523 52.2831 42.4602 51.306 42.4602ZM13.2688 1.76917H30.9605V5.30752H13.2688V1.76917ZM1.76917 49.5369V6.19211C1.76917 5.21502 2.56126 4.42293 3.53835 4.42293H11.4996V5.30752C11.4996 6.28461 12.2917 7.07669 13.2688 7.07669H30.9605C31.9376 7.07669 32.7297 6.28461 32.7297 5.30752V4.42293H40.691C41.6681 4.42293 42.4602 5.21502 42.4602 6.19211V37.3119C41.4024 37.6858 40.6941 38.6845 40.691 39.8064V42.4602H33.6143V39.8064C33.6143 38.3408 32.4262 37.1526 30.9605 37.1526C29.4949 37.1526 28.3068 38.3408 28.3068 39.8064V40.8502C26.9293 40.3658 25.4193 41.0853 24.9277 42.4602H22.9993C22.0222 42.4602 21.2301 43.2523 21.2301 44.2293V45.9985C21.2301 46.9756 22.0222 47.7677 22.9993 47.7677H24.9277C25.4193 49.1426 26.9293 49.862 28.3068 49.3776C28.2412 50.0248 28.2952 50.6784 28.466 51.306H3.53835C2.56126 51.306 1.76917 50.5139 1.76917 49.5369ZM22.9993 45.9985V44.2293H24.7684V45.9985H22.9993ZM26.5376 43.3447C26.5376 42.8562 26.9336 42.4602 27.4222 42.4602C27.9107 42.4602 28.3068 42.8562 28.3068 43.3447V46.8831C28.3068 47.3716 27.9107 47.7677 27.4222 47.7677C26.9336 47.7677 26.5376 47.3716 26.5376 46.8831V43.3447ZM30.076 50.4214V39.8064C30.076 39.3179 30.472 38.9218 30.9605 38.9218C31.4491 38.9218 31.8451 39.3179 31.8451 39.8064V50.4214C31.8451 50.91 31.4491 51.306 30.9605 51.306C30.472 51.306 30.076 50.91 30.076 50.4214ZM33.6143 44.2293H40.691V45.9985H33.6143V44.2293ZM33.4551 51.306C33.6674 50.7045 33.6143 50.6337 33.6143 47.7677H40.691C40.691 50.4214 40.6291 50.6514 40.8502 51.306C40.4875 51.306 42.0709 51.306 33.4551 51.306ZM44.2293 50.4214C44.2293 50.91 43.8333 51.306 43.3448 51.306C42.8562 51.306 42.4602 50.91 42.4602 50.4214V39.8064C42.4602 39.3179 42.8562 38.9218 43.3448 38.9218C43.8333 38.9218 44.2293 39.3179 44.2293 39.8064V50.4214ZM46.8831 47.7677C46.3946 47.7677 45.9985 47.3716 45.9985 46.8831V43.3447C45.9985 42.8562 46.3946 42.4602 46.8831 42.4602C47.3716 42.4602 47.7677 42.8562 47.7677 43.3447V46.8831C47.7677 47.3716 47.3716 47.7677 46.8831 47.7677ZM51.306 45.9985H49.5369V44.2293H51.306V45.9985Z" fill="#D68629"/>
</svg>
